<svg width="100%" height="100%" style="overflow:visible;" preserveAspectRatio="none" viewBox="0 0 87 66" fill="none" xmlns="http://www.w3.org/2000/svg">
<path d="M61.7848 65.8514H25.2148C22.9398 65.8514 21.0898 64.0004 21.0898 61.7254V4.27539C21.0898 2.00039 22.9408 0.150391 25.2148 0.150391H61.7848C64.0598 0.150391 65.9108 2.00139 65.9108 4.27539V61.7244C65.9108 64.0004 64.0608 65.8514 61.7848 65.8514ZM25.2148 1.09339C23.4598 1.09339 22.0328 2.52039 22.0328 4.27539V61.7244C22.0328 63.4794 23.4598 64.9074 25.2148 64.9074H61.7848C63.5398 64.9074 64.9678 63.4794 64.9678 61.7244V4.27539C64.9678 2.52039 63.5398 1.09339 61.7848 1.09339H25.2148Z" fill="black"/>
<path d="M63.8103 5.71672V59.2997C63.8093 59.8267 63.3823 60.2537 62.8553 60.2537H24.2763C23.7493 60.2527 23.3233 59.8267 23.3223 59.2997V5.71672C23.3223 5.18972 23.7493 4.76172 24.2763 4.76172H62.8563C63.3823 4.76272 63.8103 5.18972 63.8103 5.71672Z" fill="black"/>
<path d="M43.5973 63.6009C44.2335 63.6009 44.7493 63.0851 44.7493 62.4489C44.7493 61.8126 44.2335 61.2969 43.5973 61.2969C42.9611 61.2969 42.4453 61.8126 42.4453 62.4489C42.4453 63.0851 42.9611 63.6009 43.5973 63.6009Z" fill="black"/>
</svg>
