<svg width="100%" height="100%" style="overflow:visible;" preserveAspectRatio="none" viewBox="0 0 87 66" fill="none" xmlns="http://www.w3.org/2000/svg">
<path d="M50.8994 45.1094C50.5394 45.5794 50.2494 46.2094 50.0494 46.9894C49.8694 47.6594 49.6994 49.1794 49.5494 51.5094C49.4994 52.1994 48.9294 52.7394 48.2394 52.7394H39.2494C38.5694 52.7394 37.9894 52.2094 37.9394 51.5394C37.7194 49.0294 37.5594 47.4994 37.4694 46.9894C37.3494 46.3994 37.0594 45.7694 36.6094 45.1094H36.7494C37.1394 45.2294 37.5594 45.2994 37.9894 45.2994H49.4694C49.8994 45.2994 50.3194 45.2294 50.7094 45.1094H50.8994Z" fill="black"/>
<path d="M50.8994 21.67H50.7094C50.3194 21.55 49.8994 21.48 49.4694 21.48H37.9894C37.5594 21.48 37.1394 21.55 36.7494 21.67H36.6094C36.9694 21.2 37.2594 20.57 37.4694 19.79C37.6394 19.12 37.8094 17.6 37.9594 15.27C38.0094 14.58 38.5794 14.04 39.2794 14.04H48.2594C48.9394 14.04 49.5194 14.57 49.5694 15.24C49.7894 17.74 49.9494 19.27 50.0394 19.79C50.1594 20.38 50.4494 21.01 50.8994 21.67Z" fill="black"/>
<path d="M52.21 25.5792V41.0992C52.21 42.5492 51.04 43.7292 49.59 43.7292H37.87C36.43 43.7292 35.25 42.5492 35.25 41.0992V25.5792C35.25 24.1292 36.43 22.9492 37.87 22.9492H49.59C51.04 22.9492 52.21 24.1292 52.21 25.5792Z" fill="black"/>
</svg>
