<svg width="100%" height="100%" style="overflow:visible;" preserveAspectRatio="none" viewBox="0 0 462.81 156.03" fill="none" xmlns="http://www.w3.org/2000/svg">
<g filter="url(#filter0_dd_233_355)">
<path d="M295.113 0.639648H48.0926C21.5619 0.639648 0.0546875 20.1513 0.0546875 44.2199C0.0546875 68.2887 21.5619 87.8002 48.0926 87.8002H295.113C321.644 87.8002 343.151 68.2887 343.151 44.2199C343.151 20.1513 321.644 0.639648 295.113 0.639648Z" fill="#424242"/>
<path d="M295.113 0.639648H48.0925C21.562 0.639648 0.0546875 20.1512 0.0546875 44.22C0.0546875 68.2887 21.562 87.8002 48.0925 87.8002H295.113C321.644 87.8002 343.151 68.2887 343.151 44.22C343.151 20.1512 321.644 0.639648 295.113 0.639648Z" stroke="#9B07B7" stroke-width="0.388889"/>
<path d="M57.2246 28.8525L62.3713 41.4714L76.2811 46.1409L62.3713 50.8102L57.2246 63.4292L52.0773 50.8102L38.168 46.1409L52.0773 41.4714L57.2246 28.8525Z" fill="#9B07B7" stroke="#9B07B7" stroke-width="2.98299" stroke-linecap="round" stroke-linejoin="round"/>
<path d="M75.2196 25.0107L76.6493 28.5159L80.5129 29.8129L76.6493 31.11L75.2196 34.6156L73.7899 31.11L69.9258 29.8129L73.7899 28.5159L75.2196 25.0107Z" fill="#9B07B7" stroke="#9B07B7" stroke-width="2.98299" stroke-linecap="round" stroke-linejoin="round"/>
<path d="M103.756 53.0267H108.996C109.247 55.0753 110.347 56.7209 112.296 57.9642C114.264 59.2072 116.744 59.8286 119.736 59.8286C122.553 59.8286 124.879 59.2248 126.712 58.0168C128.565 56.7911 129.491 55.2504 129.491 53.3944C129.491 51.8013 128.845 50.4882 127.552 49.4549C126.278 48.4219 124.232 47.5729 121.415 46.9077L116.059 45.6472C112.199 44.754 109.382 43.5111 107.606 41.9176C105.831 40.3069 104.943 38.2149 104.943 35.6409C104.943 32.4895 106.313 29.9159 109.054 27.9197C111.813 25.9239 115.365 24.9258 119.707 24.9258C123.856 24.9258 127.291 25.9415 130.013 27.9722C132.734 29.9856 134.152 32.5768 134.268 35.7458H129.057C128.826 33.7152 127.861 32.1129 126.162 30.9401C124.464 29.7669 122.254 29.1802 119.533 29.1802C116.831 29.1802 114.621 29.758 112.904 30.9136C111.205 32.0692 110.356 33.575 110.356 35.431C110.356 36.8666 110.974 38.0482 112.209 38.9762C113.463 39.8869 115.509 40.6747 118.346 41.3398L122.718 42.3904C127.041 43.3709 130.148 44.6751 132.039 46.3035C133.93 47.9319 134.876 50.1028 134.876 52.8167C134.876 56.2833 133.467 59.0321 130.649 61.0632C127.851 63.0765 124.049 64.0835 119.243 64.0835C114.805 64.0835 111.177 63.0765 108.359 61.0632C105.541 59.0497 104.007 56.3707 103.756 53.0267ZM164.896 36.1401V63.4532H160.119V59.0149H160.003C158.131 62.2888 154.947 63.9256 150.45 63.9256C147.189 63.9256 144.632 63.0329 142.779 61.2471C140.946 59.4436 140.029 56.9838 140.029 53.8672V36.1401H145.066V53.053C145.066 57.6053 147.381 59.8816 152.013 59.8816C154.445 59.8816 156.356 59.1899 157.745 57.8068C159.154 56.4059 159.859 54.5324 159.859 52.1863V36.1401H164.896ZM183.683 59.6451C186.308 59.6451 188.421 58.7344 190.023 56.9137C191.625 55.093 192.426 52.6852 192.426 49.6913C192.426 46.6801 191.625 44.264 190.023 42.4429C188.421 40.6046 186.308 39.6854 183.683 39.6854C181.078 39.6854 178.994 40.5958 177.43 42.4169C175.887 44.22 175.115 46.6449 175.115 49.6913C175.115 52.7378 175.887 55.1626 177.43 56.9661C178.994 58.752 181.078 59.6451 183.683 59.6451ZM183.857 73.748C180.557 73.748 177.72 72.9864 175.346 71.4629C172.972 69.9575 171.573 68.0403 171.148 65.7115H176.33C176.832 66.972 177.778 67.979 179.167 68.7318C180.557 69.4848 182.187 69.861 184.06 69.861C186.646 69.861 188.682 69.2396 190.168 67.9966C191.673 66.7533 192.426 65.1076 192.426 63.0589V58.752H192.31C191.364 60.2577 190.043 61.4571 188.344 62.3501C186.646 63.2252 184.754 63.6632 182.67 63.6632C178.83 63.6632 175.752 62.3938 173.435 59.8551C171.12 57.3164 169.962 53.9285 169.962 49.6913C169.962 45.4196 171.12 42.0142 173.435 39.4754C175.77 36.9367 178.887 35.6673 182.786 35.6673C184.909 35.6673 186.819 36.1138 188.518 37.0068C190.216 37.8995 191.567 39.1425 192.571 40.736H192.657V36.1401H197.463V62.9015C197.463 66.1755 196.228 68.802 193.757 70.7801C191.287 72.7588 187.987 73.748 183.857 73.748ZM216.279 59.6451C218.904 59.6451 221.017 58.7344 222.62 56.9137C224.221 55.093 225.022 52.6852 225.022 49.6913C225.022 46.6801 224.221 44.264 222.62 42.4429C221.017 40.6046 218.904 39.6854 216.279 39.6854C213.674 39.6854 211.59 40.5958 210.027 42.4169C208.483 44.22 207.711 46.6449 207.711 49.6913C207.711 52.7378 208.483 55.1626 210.027 56.9661C211.59 58.752 213.674 59.6451 216.279 59.6451ZM216.453 73.748C213.153 73.748 210.316 72.9864 207.942 71.4629C205.568 69.9575 204.169 68.0403 203.745 65.7115H208.926C209.428 66.972 210.374 67.979 211.764 68.7318C213.153 69.4848 214.784 69.861 216.656 69.861C219.242 69.861 221.278 69.2396 222.764 67.9966C224.27 66.7533 225.022 65.1076 225.022 63.0589V58.752H224.906C223.961 60.2577 222.638 61.4571 220.94 62.3501C219.242 63.2252 217.351 63.6632 215.266 63.6632C211.426 63.6632 208.347 62.3938 206.032 59.8551C203.716 57.3164 202.558 53.9285 202.558 49.6913C202.558 45.4196 203.716 42.0142 206.032 39.4754C208.367 36.9367 211.484 35.6673 215.382 35.6673C217.504 35.6673 219.416 36.1138 221.114 37.0068C222.813 37.8995 224.163 39.1425 225.167 40.736H225.253V36.1401H230.059V62.9015C230.059 66.1755 228.824 68.802 226.354 70.7801C223.884 72.7588 220.583 73.748 216.453 73.748ZM248.703 39.633C246.366 39.633 244.427 40.3682 242.883 41.8391C241.359 43.292 240.52 45.1655 240.365 47.4591H256.721C256.663 45.1479 255.901 43.2659 254.434 41.8126C252.967 40.3593 251.057 39.633 248.703 39.633ZM256.605 55.6266H261.555C261.111 58.0427 259.721 60.0301 257.386 61.5884C255.07 63.1467 252.282 63.9256 249.021 63.9256C244.717 63.9256 241.329 62.6651 238.859 60.144C236.389 57.6229 235.153 54.2087 235.153 49.9017C235.153 45.6296 236.389 42.1893 238.859 39.5804C241.349 36.9716 244.659 35.6673 248.789 35.6673C252.842 35.6673 256.045 36.9014 258.399 39.3704C260.755 41.8391 261.931 45.1479 261.931 49.2975V51.0308H240.336V51.2936C240.336 53.9198 241.127 56.0209 242.709 57.5964C244.293 59.1723 246.435 59.9601 249.136 59.9601C251.027 59.9601 252.639 59.5662 253.971 58.7785C255.302 57.9903 256.18 56.9401 256.605 55.6266ZM266.506 43.6774C266.506 41.331 267.547 39.4141 269.631 37.926C271.735 36.4203 274.438 35.6673 277.738 35.6673C280.844 35.6673 283.43 36.4203 285.496 37.926C287.561 39.4314 288.651 41.3398 288.767 43.6509H283.962C283.788 42.3203 283.132 41.2785 281.993 40.5256C280.874 39.7732 279.397 39.3965 277.563 39.3965C275.73 39.3965 274.254 39.7732 273.135 40.5256C272.015 41.2613 271.455 42.233 271.455 43.4411C271.455 45.297 273.125 46.6101 276.464 47.3801L281.124 48.4047C284.155 49.1051 286.287 50.0154 287.522 51.1358C288.776 52.2389 289.404 53.7971 289.404 55.8106C289.404 58.1918 288.284 60.144 286.046 61.6674C283.807 63.1728 280.932 63.9256 277.419 63.9256C274.138 63.9256 271.427 63.1904 269.285 61.7199C267.161 60.2314 265.965 58.2703 265.695 55.837H270.732C271.292 58.7432 273.627 60.1964 277.738 60.1964C279.764 60.1964 281.366 59.8375 282.543 59.1198C283.739 58.3842 284.338 57.3953 284.338 56.152C284.338 55.1715 283.98 54.3926 283.267 53.8148C282.572 53.237 281.385 52.7465 279.706 52.3439L274.408 51.1097C269.14 49.884 266.506 47.4066 266.506 43.6774ZM296.265 29.5481H301.302V36.1401H307.15V39.8954H301.302V56.1259C301.302 57.3688 301.601 58.2881 302.199 58.8835C302.798 59.4612 303.743 59.7501 305.036 59.7501C305.847 59.7501 306.541 59.7064 307.12 59.6186V63.4532C306.464 63.593 305.403 63.6632 303.936 63.6632C301.176 63.6632 299.208 63.103 298.03 61.9823C296.853 60.8616 296.265 58.9884 296.265 56.3623V39.8954H291.778V36.1401H296.265V29.5481Z" fill="#9B07B7"/>
</g>
<defs>
<filter id="filter0_dd_233_355" x="-59.8004" y="-48.0282" width="462.806" height="206.869" filterUnits="userSpaceOnUse" color-interpolation-filters="sRGB">
<feFlood flood-opacity="0" result="BackgroundImageFix"/>
<feColorMatrix in="SourceAlpha" type="matrix" values="0 0 0 0 0 0 0 0 0 0 0 0 0 0 0 0 0 0 127 0" result="hardAlpha"/>
<feOffset dy="11.1862"/>
<feGaussianBlur stdDeviation="29.8299"/>
<feColorMatrix type="matrix" values="0 0 0 0 0 0 0 0 0 0 0 0 0 0 0 0 0 0 0.08 0"/>
<feBlend mode="normal" in2="BackgroundImageFix" result="effect1_dropShadow_233_355"/>
<feColorMatrix in="SourceAlpha" type="matrix" values="0 0 0 0 0 0 0 0 0 0 0 0 0 0 0 0 0 0 127 0" result="hardAlpha"/>
<feOffset dy="7.45745"/>
<feGaussianBlur stdDeviation="3.72873"/>
<feColorMatrix type="matrix" values="0 0 0 0 0 0 0 0 0 0 0 0 0 0 0 0 0 0 0.03 0"/>
<feBlend mode="normal" in2="effect1_dropShadow_233_355" result="effect2_dropShadow_233_355"/>
<feBlend mode="normal" in="SourceGraphic" in2="effect2_dropShadow_233_355" result="shape"/>
</filter>
</defs>
</svg>
