<svg width="100%" height="100%" style="overflow:visible;" preserveAspectRatio="none" viewBox="0 0 288.56 206.48" fill="none" xmlns="http://www.w3.org/2000/svg">
<g filter="url(#filter0_dd_233_350)">
<path d="M244.365 0.862793H48.1355C21.6049 0.862793 0.0976562 20.3743 0.0976562 44.4431C0.0976562 68.5119 21.6049 88.0234 48.1355 88.0234H244.365C270.895 88.0234 292.402 68.5119 292.402 44.4431C292.402 20.3743 270.895 0.862793 244.365 0.862793Z" fill="#424242"/>
<path d="M57.2676 29.0757L62.4147 41.6944L76.3241 46.3641L62.4147 51.0332L57.2676 63.652L52.1208 51.0332L38.2109 46.3641L52.1208 41.6944L57.2676 29.0757Z" fill="#FD8C73" stroke="#FD8C73" stroke-width="2.98299" stroke-linecap="round" stroke-linejoin="round"/>
<path d="M75.2621 25.2339L76.6918 28.7391L80.5555 30.0361L76.6918 31.3331L75.2621 34.8383L73.8324 31.3331L69.9688 30.0361L73.8324 28.7391L75.2621 25.2339Z" fill="#FD8C73" stroke="#FD8C73" stroke-width="2.98299" stroke-linecap="round" stroke-linejoin="round"/>
<path d="M133 63.6756L128.803 52.8295H112.187L107.989 63.6756H102.518L117.918 25.7788H123.071L138.472 63.6756H133ZM120.408 31.5302L113.72 48.811H127.269L120.581 31.5302H120.408ZM141.946 43.9002C141.946 41.5537 142.988 39.6369 145.072 38.1488C147.176 36.6429 149.877 35.8901 153.178 35.8901C156.285 35.8901 158.871 36.6429 160.936 38.1488C163.001 39.6541 164.091 41.5626 164.207 43.8737H159.402C159.228 42.543 158.572 41.5013 157.433 40.7484C156.314 39.9955 154.837 39.6193 153.004 39.6193C151.171 39.6193 149.694 39.9955 148.575 40.7484C147.455 41.4841 146.896 42.4557 146.896 43.6637C146.896 45.5198 148.565 46.8328 151.904 47.6029L156.565 48.6275C159.595 49.3279 161.727 50.2382 162.962 51.3586C164.217 52.4616 164.844 54.0199 164.844 56.0333C164.844 58.4146 163.725 60.3668 161.486 61.8897C159.247 63.3955 156.372 64.1484 152.859 64.1484C149.579 64.1484 146.867 63.4132 144.725 61.9427C142.602 60.454 141.405 58.4931 141.135 56.0598H146.172C146.732 58.9659 149.067 60.4192 153.178 60.4192C155.204 60.4192 156.806 60.0602 157.983 59.3426C159.18 58.607 159.778 57.618 159.778 56.3747C159.778 55.3942 159.421 54.6154 158.707 54.0375C158.012 53.4597 156.825 52.9693 155.146 52.5666L149.848 51.3325C144.58 50.1068 141.946 47.6294 141.946 43.9002ZM175.381 48.496L188.698 36.3629H194.807L181.75 48.1546L195.213 63.6756H189.363L178.189 50.9647L175.381 53.3808V63.6756H170.344V25.7788H175.381V48.496ZM238.951 63.6756L234.756 52.8295H218.14L213.939 63.6756H208.472L223.869 25.7788H229.023L244.423 63.6756H238.951ZM226.359 31.5302L219.672 48.811H233.222L226.532 31.5302H226.359ZM254.409 63.6756H249.202V25.7788H254.409V63.6756Z" fill="#FD8C73"/>
</g>
<defs>
<filter id="filter0_dd_233_350" x="-59.5621" y="-47.6108" width="411.624" height="206.48" filterUnits="userSpaceOnUse" color-interpolation-filters="sRGB">
<feFlood flood-opacity="0" result="BackgroundImageFix"/>
<feColorMatrix in="SourceAlpha" type="matrix" values="0 0 0 0 0 0 0 0 0 0 0 0 0 0 0 0 0 0 127 0" result="hardAlpha"/>
<feOffset dy="11.1862"/>
<feGaussianBlur stdDeviation="29.8299"/>
<feColorMatrix type="matrix" values="0 0 0 0 0 0 0 0 0 0 0 0 0 0 0 0 0 0 0.08 0"/>
<feBlend mode="normal" in2="BackgroundImageFix" result="effect1_dropShadow_233_350"/>
<feColorMatrix in="SourceAlpha" type="matrix" values="0 0 0 0 0 0 0 0 0 0 0 0 0 0 0 0 0 0 127 0" result="hardAlpha"/>
<feOffset dy="7.45745"/>
<feGaussianBlur stdDeviation="3.72873"/>
<feColorMatrix type="matrix" values="0 0 0 0 0 0 0 0 0 0 0 0 0 0 0 0 0 0 0.03 0"/>
<feBlend mode="normal" in2="effect1_dropShadow_233_350" result="effect2_dropShadow_233_350"/>
<feBlend mode="normal" in="SourceGraphic" in2="effect2_dropShadow_233_350" result="shape"/>
</filter>
</defs>
</svg>
