<svg width="100%" height="100%" style="overflow:visible;" preserveAspectRatio="none" viewBox="0 0 425 152.97" fill="none" xmlns="http://www.w3.org/2000/svg">
<g filter="url(#filter0_dd_220_1690)">
<path d="M263.638 0.0380859H43.5462C19.9078 0.0380859 0.745117 18.9938 0.745117 42.3768C0.745117 65.7598 19.9078 84.7155 43.5462 84.7155H263.638C287.276 84.7155 306.439 65.7598 306.439 42.3768C306.439 18.9938 287.276 0.0380859 263.638 0.0380859Z" fill="#424242"/>
<path d="M263.638 0.0380859H43.5461C19.9078 0.0380859 0.745117 18.9937 0.745117 42.3768C0.745117 65.7598 19.9078 84.7155 43.5461 84.7155H263.638C287.276 84.7155 306.439 65.7598 306.439 42.3768C306.439 18.9937 287.276 0.0380859 263.638 0.0380859Z" stroke="#9B07B7" stroke-width="0.388889"/>
<path d="M51.6823 27.4473L56.2679 39.7066L68.6614 44.2431L56.2679 48.7793L51.6823 61.0389L47.0962 48.7793L34.7031 44.2431L47.0962 39.7066L51.6823 27.4473Z" fill="#9B07B7" stroke="#9B07B7" stroke-width="2.98299" stroke-linecap="round" stroke-linejoin="round"/>
<path d="M67.7167 23.7148L68.9905 27.1202L72.433 28.3802L68.9905 29.6403L67.7167 33.046L66.4429 29.6403L63 28.3802L66.4429 27.1202L67.7167 23.7148Z" fill="#9B07B7" stroke="#9B07B7" stroke-width="2.98299" stroke-linecap="round" stroke-linejoin="round"/>
<path d="M93.1406 50.9326H97.8093C98.0329 52.9229 99.0131 54.5216 100.75 55.7295C102.504 56.9371 104.713 57.5408 107.379 57.5408C109.889 57.5408 111.961 56.9542 113.595 55.7806C115.245 54.5898 116.071 53.093 116.071 51.2899C116.071 49.7422 115.494 48.4665 114.343 47.4626C113.208 46.459 111.385 45.6342 108.874 44.988L104.103 43.7634C100.664 42.8957 98.1533 41.6882 96.5713 40.1401C94.9894 38.5752 94.1984 36.5428 94.1984 34.0422C94.1984 30.9806 95.4191 28.4803 97.8609 26.5409C100.32 24.602 103.484 23.6323 107.353 23.6323C111.05 23.6323 114.11 24.6191 116.535 26.5919C118.959 28.548 120.223 31.0654 120.326 34.1441H115.684C115.478 32.1713 114.618 30.6147 113.105 29.4753C111.591 28.3355 109.622 27.7656 107.198 27.7656C104.79 27.7656 102.822 28.3269 101.291 29.4496C99.7781 30.5722 99.0214 32.0351 99.0214 33.8382C99.0214 35.233 99.5719 36.3809 100.672 37.2825C101.79 38.1672 103.613 38.9326 106.14 39.5787L110.035 40.5994C113.887 41.5519 116.655 42.819 118.34 44.401C120.025 45.983 120.868 48.092 120.868 50.7286C120.868 54.0965 119.613 56.7669 117.102 58.7401C114.609 60.6962 111.222 61.6744 106.94 61.6744C102.985 61.6744 99.7525 60.6962 97.2419 58.7401C94.7312 56.784 93.3641 54.1814 93.1406 50.9326ZM147.615 34.5272V61.0621H143.36V56.7502H143.256C141.588 59.9309 138.751 61.5211 134.745 61.5211C131.838 61.5211 129.56 60.6538 127.91 58.9188C126.276 57.1667 125.459 54.777 125.459 51.7492V34.5272H129.947V50.9582C129.947 55.3808 132.01 57.5922 136.137 57.5922C138.304 57.5922 140.006 56.9203 141.244 55.5766C142.5 54.2156 143.127 52.3954 143.127 50.1162V34.5272H147.615ZM164.355 57.3625C166.693 57.3625 168.576 56.4777 170.004 54.7089C171.431 52.9401 172.144 50.6009 172.144 47.6922C172.144 44.7669 171.431 42.4196 170.004 40.6504C168.576 38.8644 166.693 37.9714 164.355 37.9714C162.034 37.9714 160.176 38.8559 158.783 40.6251C157.408 42.3769 156.72 44.7327 156.72 47.6922C156.72 50.6519 157.408 53.0077 158.783 54.7599C160.176 56.4949 162.034 57.3625 164.355 57.3625ZM164.51 71.0636C161.569 71.0636 159.042 70.3237 156.926 68.8436C154.811 67.3811 153.565 65.5185 153.186 63.2561H157.804C158.251 64.4807 159.093 65.4589 160.331 66.1903C161.569 66.9218 163.022 67.2873 164.69 67.2873C166.994 67.2873 168.808 66.6836 170.133 65.476C171.474 64.2682 172.144 62.6694 172.144 60.679V56.4949H172.041C171.199 57.9577 170.021 59.1228 168.507 59.9905C166.994 60.8406 165.309 61.2661 163.452 61.2661C160.03 61.2661 157.288 60.0329 155.224 57.5665C153.161 55.1001 152.129 51.8088 152.129 47.6922C152.129 43.5423 153.161 40.2339 155.224 37.7674C157.305 35.301 160.082 34.0678 163.555 34.0678C165.446 34.0678 167.149 34.5016 168.662 35.3692C170.175 36.2364 171.379 37.444 172.273 38.9921H172.35V34.5272H176.632V60.5261C176.632 63.7068 175.532 66.2585 173.331 68.1803C171.13 70.1026 168.189 71.0636 164.51 71.0636ZM193.397 57.3625C195.736 57.3625 197.619 56.4777 199.047 54.7089C200.473 52.9401 201.187 50.6009 201.187 47.6922C201.187 44.7669 200.473 42.4196 199.047 40.6504C197.619 38.8644 195.736 37.9714 193.397 37.9714C191.076 37.9714 189.219 38.8559 187.826 40.6251C186.451 42.3769 185.763 44.7327 185.763 47.6922C185.763 50.6519 186.451 53.0077 187.826 54.7599C189.219 56.4949 191.076 57.3625 193.397 57.3625ZM193.552 71.0636C190.612 71.0636 188.084 70.3237 185.969 68.8436C183.854 67.3811 182.607 65.5185 182.229 63.2561H186.846C187.293 64.4807 188.136 65.4589 189.374 66.1903C190.612 66.9218 192.065 67.2873 193.733 67.2873C196.037 67.2873 197.852 66.6836 199.175 65.476C200.517 64.2682 201.187 62.6694 201.187 60.679V56.4949H201.084C200.242 57.9577 199.063 59.1228 197.55 59.9905C196.037 60.8406 194.352 61.2661 192.495 61.2661C189.073 61.2661 186.33 60.0329 184.267 57.5665C182.203 55.1001 181.172 51.8088 181.172 47.6922C181.172 43.5423 182.203 40.2339 184.267 37.7674C186.347 35.301 189.125 34.0678 192.598 34.0678C194.489 34.0678 196.192 34.5016 197.705 35.3692C199.219 36.2364 200.422 37.444 201.316 38.9921H201.393V34.5272H205.675V60.5261C205.675 63.7068 204.575 66.2585 202.374 68.1803C200.173 70.1026 197.232 71.0636 193.552 71.0636ZM222.286 37.9205C220.205 37.9205 218.476 38.6348 217.101 40.0638C215.743 41.4753 214.995 43.2954 214.858 45.5236H229.43C229.378 43.2783 228.699 41.4499 227.393 40.0381C226.086 38.6262 224.384 37.9205 222.286 37.9205ZM229.327 53.4585H233.738C233.342 55.8058 232.104 57.7366 230.023 59.2504C227.96 60.7643 225.476 61.5211 222.569 61.5211C218.735 61.5211 215.717 60.2965 213.516 57.8472C211.315 55.3979 210.214 52.0809 210.214 47.8966C210.214 43.7463 211.315 40.404 213.516 37.8694C215.734 35.335 218.684 34.0678 222.363 34.0678C225.974 34.0678 228.828 35.2668 230.926 37.6654C233.024 40.0638 234.073 43.2783 234.073 47.3097V48.9936H214.831V49.249C214.831 51.8003 215.537 53.8416 216.946 55.3722C218.357 56.9031 220.265 57.6685 222.673 57.6685C224.357 57.6685 225.793 57.2858 226.98 56.5206C228.166 55.7548 228.948 54.7345 229.327 53.4585ZM238.149 41.8497C238.149 39.5702 239.077 37.7079 240.933 36.2622C242.807 34.7993 245.216 34.0678 248.156 34.0678C250.924 34.0678 253.228 34.7993 255.069 36.2622C256.908 37.7247 257.88 39.5787 257.983 41.824H253.702C253.547 40.5312 252.962 39.5192 251.947 38.7877C250.95 38.0567 249.635 37.6908 248.001 37.6908C246.367 37.6908 245.052 38.0567 244.055 38.7877C243.057 39.5024 242.559 40.4465 242.559 41.6201C242.559 43.4232 244.046 44.6988 247.021 45.447L251.173 46.4423C253.874 47.1228 255.773 48.0072 256.874 49.0956C257.991 50.1673 258.551 51.6811 258.551 53.6373C258.551 55.9506 257.553 57.8472 255.558 59.3272C253.564 60.7896 251.002 61.5211 247.872 61.5211C244.949 61.5211 242.533 60.8068 240.625 59.3782C238.732 57.9321 237.667 56.0269 237.426 53.6629H241.914C242.413 56.4862 244.493 57.8981 248.156 57.8981C249.962 57.8981 251.388 57.5494 252.438 56.8522C253.503 56.1375 254.037 55.1768 254.037 53.9689C254.037 53.0164 253.718 52.2596 253.082 51.6983C252.463 51.1369 251.406 50.6604 249.91 50.2693L245.189 49.0703C240.495 47.8795 238.149 45.4727 238.149 41.8497ZM264.664 28.1229H269.151V34.5272H274.362V38.1754H269.151V53.9436C269.151 55.151 269.417 56.0441 269.951 56.6226C270.484 57.1838 271.326 57.4645 272.478 57.4645C273.201 57.4645 273.819 57.4221 274.335 57.3368V61.0621C273.75 61.1979 272.805 61.2661 271.498 61.2661C269.039 61.2661 267.285 60.7219 266.236 59.6331C265.188 58.5444 264.664 56.7245 264.664 54.1732V38.1754H260.666V34.5272H264.664V28.1229Z" fill="#9B07B7"/>
</g>
<defs>
<filter id="filter0_dd_220_1690" x="-59.109" y="-48.6298" width="425.402" height="204.386" filterUnits="userSpaceOnUse" color-interpolation-filters="sRGB">
<feFlood flood-opacity="0" result="BackgroundImageFix"/>
<feColorMatrix in="SourceAlpha" type="matrix" values="0 0 0 0 0 0 0 0 0 0 0 0 0 0 0 0 0 0 127 0" result="hardAlpha"/>
<feOffset dy="11.1862"/>
<feGaussianBlur stdDeviation="29.8299"/>
<feColorMatrix type="matrix" values="0 0 0 0 0 0 0 0 0 0 0 0 0 0 0 0 0 0 0.08 0"/>
<feBlend mode="normal" in2="BackgroundImageFix" result="effect1_dropShadow_220_1690"/>
<feColorMatrix in="SourceAlpha" type="matrix" values="0 0 0 0 0 0 0 0 0 0 0 0 0 0 0 0 0 0 127 0" result="hardAlpha"/>
<feOffset dy="7.45745"/>
<feGaussianBlur stdDeviation="3.72873"/>
<feColorMatrix type="matrix" values="0 0 0 0 0 0 0 0 0 0 0 0 0 0 0 0 0 0 0.03 0"/>
<feBlend mode="normal" in2="effect1_dropShadow_220_1690" result="effect2_dropShadow_220_1690"/>
<feBlend mode="normal" in="SourceGraphic" in2="effect2_dropShadow_220_1690" result="shape"/>
</filter>
</defs>
</svg>
