<svg width="100%" height="100%" style="overflow:visible;" preserveAspectRatio="none" viewBox="0 0 263.61 204" fill="none" xmlns="http://www.w3.org/2000/svg">
<g filter="url(#filter0_dd_220_1685)">
<path d="M217.691 0.0185547H42.8538C19.2154 0.0185547 0.0527344 18.9742 0.0527344 42.3572C0.0527344 65.7403 19.2154 84.6959 42.8538 84.6959H217.691C241.329 84.6959 260.492 65.7403 260.492 42.3572C260.492 18.9742 241.329 0.0185547 217.691 0.0185547Z" fill="#424242"/>
<path d="M50.9889 27.4277L55.575 39.687L67.968 44.2236L55.575 48.7597L50.9889 61.019L46.4032 48.7597L34.0098 44.2236L46.4032 39.687L50.9889 27.4277Z" fill="#FD8C73" stroke="#FD8C73" stroke-width="2.98299" stroke-linecap="round" stroke-linejoin="round"/>
<path d="M67.023 23.6953L68.2968 27.1006L71.7393 28.3607L68.2968 29.6208L67.023 33.0261L65.7491 29.6208L62.3066 28.3607L65.7491 27.1006L67.023 23.6953Z" fill="#FD8C73" stroke="#FD8C73" stroke-width="2.98299" stroke-linecap="round" stroke-linejoin="round"/>
<path d="M118.466 61.0422L114.726 50.5051H99.9215L96.1816 61.0422H91.3066L105.028 24.2251H109.619L123.341 61.0422H118.466ZM107.246 29.8127L101.288 46.6011H113.359L107.401 29.8127H107.246ZM126.436 41.8302C126.436 39.5506 127.365 37.6884 129.222 36.2426C131.096 34.7797 133.504 34.0483 136.444 34.0483C139.212 34.0483 141.516 34.7797 143.357 36.2426C145.196 37.7051 146.168 39.5592 146.271 41.8045H141.99C141.835 40.5117 141.25 39.4996 140.236 38.7682C139.238 38.0368 137.923 37.6712 136.289 37.6712C134.656 37.6712 133.34 38.0368 132.343 38.7682C131.346 39.4829 130.847 40.4268 130.847 41.6005C130.847 43.4036 132.335 44.6793 135.309 45.4274L139.462 46.4228C142.161 47.1033 144.061 47.9876 145.162 49.0761C146.28 50.1477 146.838 51.6616 146.838 53.6176C146.838 55.9311 145.841 57.8276 143.846 59.3072C141.852 60.7701 139.29 61.5015 136.16 61.5015C133.237 61.5015 130.821 60.7872 128.912 59.3586C127.021 57.9124 125.955 56.0074 125.714 53.6434H130.202C130.701 56.4667 132.781 57.8786 136.444 57.8786C138.249 57.8786 139.677 57.5299 140.725 56.8327C141.792 56.118 142.325 55.1572 142.325 53.9494C142.325 52.9967 142.007 52.2401 141.37 51.6787C140.751 51.1174 139.694 50.6409 138.198 50.2497L133.478 49.0508C128.783 47.86 126.436 45.4532 126.436 41.8302ZM156.227 46.2951L168.092 34.5077H173.535L161.901 45.9634L173.897 61.0422H168.685L158.729 48.6934L156.227 51.0407V61.0422H151.739V24.2251H156.227V46.2951ZM212.867 61.0422L209.129 50.5051H194.325L190.582 61.0422H185.71L199.429 24.2251H204.021L217.742 61.0422H212.867ZM201.648 29.8127L195.69 46.6011H207.763L201.802 29.8127H201.648ZM226.64 61.0422H222V24.2251H226.64V61.0422Z" fill="#FD8C73"/>
</g>
<defs>
<filter id="filter0_dd_220_1685" x="-59.607" y="-48.455" width="379.759" height="203.997" filterUnits="userSpaceOnUse" color-interpolation-filters="sRGB">
<feFlood flood-opacity="0" result="BackgroundImageFix"/>
<feColorMatrix in="SourceAlpha" type="matrix" values="0 0 0 0 0 0 0 0 0 0 0 0 0 0 0 0 0 0 127 0" result="hardAlpha"/>
<feOffset dy="11.1862"/>
<feGaussianBlur stdDeviation="29.8299"/>
<feColorMatrix type="matrix" values="0 0 0 0 0 0 0 0 0 0 0 0 0 0 0 0 0 0 0.08 0"/>
<feBlend mode="normal" in2="BackgroundImageFix" result="effect1_dropShadow_220_1685"/>
<feColorMatrix in="SourceAlpha" type="matrix" values="0 0 0 0 0 0 0 0 0 0 0 0 0 0 0 0 0 0 127 0" result="hardAlpha"/>
<feOffset dy="7.45745"/>
<feGaussianBlur stdDeviation="3.72873"/>
<feColorMatrix type="matrix" values="0 0 0 0 0 0 0 0 0 0 0 0 0 0 0 0 0 0 0.03 0"/>
<feBlend mode="normal" in2="effect1_dropShadow_220_1685" result="effect2_dropShadow_220_1685"/>
<feBlend mode="normal" in="SourceGraphic" in2="effect2_dropShadow_220_1685" result="shape"/>
</filter>
</defs>
</svg>
