<svg width="100%" height="100%" style="overflow:visible;" preserveAspectRatio="none" viewBox="0 0 376.22 204" fill="none" xmlns="http://www.w3.org/2000/svg">
<g filter="url(#filter0_dd_220_1672)">
<path d="M214.276 -0.00146484H42.9807C19.3423 -0.00146484 0.179688 18.9542 0.179688 42.3372C0.179688 65.7203 19.3423 84.6759 42.9807 84.6759H214.276C237.915 84.6759 257.077 65.7203 257.077 42.3372C257.077 18.9542 237.915 -0.00146484 214.276 -0.00146484Z" fill="#424242"/>
<path d="M51.1159 27.4077L55.7015 39.667L68.095 44.2032L55.7015 48.7397L51.1159 60.9989L46.5298 48.7397L34.1367 44.2032L46.5298 39.667L51.1159 27.4077Z" fill="#FFC0EA" stroke="#FFC0EA" stroke-width="2.98299" stroke-linecap="round" stroke-linejoin="round"/>
<path d="M67.1503 23.6753L68.4241 27.0806L71.8666 28.3407L68.4241 29.6007L67.1503 33.0061L65.8765 29.6007L62.4336 28.3407L65.8765 27.0806L67.1503 23.6753Z" fill="#FFC0EA" stroke="#FFC0EA" stroke-width="2.98299" stroke-linecap="round" stroke-linejoin="round"/>
<path d="M99.1798 61.0226H94.5371V24.2051H117.132V28.3383H99.1798V40.9935H115.662V45.0758H99.1798V61.0226ZM128.79 57.7056C130.905 57.7056 132.676 57.059 134.103 55.7662C135.548 54.4568 136.27 52.8495 136.27 50.9444V48.7754L129.1 49.2094C127.294 49.3281 125.893 49.7622 124.895 50.5104C123.915 51.2589 123.425 52.2624 123.425 53.5213C123.425 54.7799 123.915 55.792 124.895 56.5573C125.876 57.323 127.174 57.7056 128.79 57.7056ZM127.784 61.4815C125.119 61.4815 122.961 60.7501 121.31 59.2876C119.677 57.8247 118.86 55.9025 118.86 53.5213C118.86 51.2418 119.703 49.4219 121.388 48.0611C123.09 46.7002 125.489 45.9349 128.584 45.7648L136.27 45.3311V43.1115C136.27 41.4953 135.754 40.2281 134.722 39.3095C133.691 38.3912 132.246 37.9319 130.389 37.9319C128.687 37.9319 127.303 38.306 126.237 39.0545C125.171 39.786 124.491 40.8152 124.199 42.1418H119.866C120.021 39.7774 121.052 37.8385 122.961 36.3246C124.887 34.7936 127.398 34.0283 130.493 34.0283C133.639 34.0283 136.132 34.8107 137.973 36.3756C139.83 37.9404 140.758 40.041 140.758 42.6774V61.0226H136.502V56.4553H136.399C135.591 57.9692 134.404 59.1852 132.84 60.1039C131.275 61.0226 129.59 61.4815 127.784 61.4815ZM145.994 41.8102C145.994 39.531 146.923 37.6683 148.78 36.2226C150.654 34.7597 153.061 34.0283 156.002 34.0283C158.77 34.0283 161.074 34.7597 162.914 36.2226C164.754 37.6851 165.725 39.5392 165.829 41.7845H161.547C161.392 40.4917 160.808 39.4796 159.793 38.7482C158.796 38.0172 157.48 37.6512 155.847 37.6512C154.213 37.6512 152.898 38.0172 151.901 38.7482C150.903 39.4629 150.405 40.4068 150.405 41.5805C150.405 43.3836 151.892 44.6593 154.867 45.4078L159.019 46.4028C161.719 47.0832 163.619 47.9676 164.72 49.0561C165.837 50.1277 166.396 51.6416 166.396 53.5976C166.396 55.9111 165.399 57.8076 163.404 59.2876C161.41 60.7501 158.848 61.4815 155.718 61.4815C152.795 61.4815 150.379 60.7672 148.47 59.3386C146.579 57.8924 145.513 55.9873 145.272 53.6233H149.76C150.259 56.4467 152.339 57.8586 156.002 57.8586C157.807 57.8586 159.234 57.5098 160.283 56.8127C161.349 56.0984 161.882 55.1372 161.882 53.9293C161.882 52.9768 161.564 52.2201 160.928 51.6587C160.309 51.0974 159.252 50.6209 157.755 50.2297L153.036 49.0307C148.341 47.84 145.994 45.4331 145.994 41.8102ZM172.509 28.0834H176.997V34.4876H182.207V38.1359H176.997V53.904C176.997 55.1115 177.263 56.0045 177.797 56.5829C178.33 57.1443 179.172 57.425 180.324 57.425C181.047 57.425 181.666 57.3825 182.182 57.2972V61.0226C181.597 61.1584 180.651 61.2266 179.344 61.2266C176.885 61.2266 175.131 60.6823 174.083 59.5936C173.033 58.5052 172.509 56.6849 172.509 54.1336V38.1359H168.511V34.4876H172.509V28.0834ZM196.986 37.8808C194.906 37.8808 193.178 38.5952 191.802 40.0242C190.444 41.4357 189.696 43.2559 189.558 45.4841H204.131C204.079 43.2388 203.4 41.4104 202.093 39.9985C200.787 38.5866 199.084 37.8808 196.986 37.8808ZM204.027 53.4189H208.438C208.042 55.7662 206.805 57.697 204.724 59.2109C202.661 60.7248 200.176 61.4815 197.27 61.4815C193.436 61.4815 190.418 60.2569 188.217 57.8076C186.016 55.3583 184.915 52.0414 184.915 47.8571C184.915 43.7067 186.016 40.3645 188.217 37.8299C190.435 35.2953 193.384 34.0283 197.063 34.0283C200.675 34.0283 203.529 35.2273 205.627 37.6259C207.725 40.0242 208.774 43.2388 208.774 47.27V48.9541H189.533V49.2094C189.533 51.7607 190.237 53.802 191.647 55.3326C193.057 56.8636 194.966 57.629 197.373 57.629C199.059 57.629 200.495 57.2463 201.681 56.4809C202.868 55.7153 203.65 54.695 204.027 53.4189ZM213.313 61.0226V34.4876H217.543V38.8249H217.646C218.094 37.3452 218.893 36.1798 220.045 35.3297C221.214 34.4619 222.582 34.0283 224.146 34.0283C224.507 34.0283 225.109 34.0878 225.952 34.207V38.5189C225.471 38.3488 224.671 38.2635 223.553 38.2635C221.817 38.2635 220.424 38.8335 219.375 39.9732C218.325 41.1126 217.801 42.6179 217.801 44.4891V61.0226H213.313Z" fill="#FFC0EA"/>
</g>
<defs>
<filter id="filter0_dd_220_1672" x="-59.4801" y="-48.475" width="376.218" height="203.997" filterUnits="userSpaceOnUse" color-interpolation-filters="sRGB">
<feFlood flood-opacity="0" result="BackgroundImageFix"/>
<feColorMatrix in="SourceAlpha" type="matrix" values="0 0 0 0 0 0 0 0 0 0 0 0 0 0 0 0 0 0 127 0" result="hardAlpha"/>
<feOffset dy="11.1862"/>
<feGaussianBlur stdDeviation="29.8299"/>
<feColorMatrix type="matrix" values="0 0 0 0 0 0 0 0 0 0 0 0 0 0 0 0 0 0 0.08 0"/>
<feBlend mode="normal" in2="BackgroundImageFix" result="effect1_dropShadow_220_1672"/>
<feColorMatrix in="SourceAlpha" type="matrix" values="0 0 0 0 0 0 0 0 0 0 0 0 0 0 0 0 0 0 127 0" result="hardAlpha"/>
<feOffset dy="7.45745"/>
<feGaussianBlur stdDeviation="3.72873"/>
<feColorMatrix type="matrix" values="0 0 0 0 0 0 0 0 0 0 0 0 0 0 0 0 0 0 0.03 0"/>
<feBlend mode="normal" in2="effect1_dropShadow_220_1672" result="effect2_dropShadow_220_1672"/>
<feBlend mode="normal" in="SourceGraphic" in2="effect2_dropShadow_220_1672" result="shape"/>
</filter>
</defs>
</svg>
