<svg width="100%" height="100%" style="overflow:visible;" preserveAspectRatio="none" viewBox="0 0 271.27 204" fill="none" xmlns="http://www.w3.org/2000/svg">
<g filter="url(#filter0_dd_220_1680)">
<path d="M225.807 0.0185547H43.4924C19.854 0.0185547 0.691406 18.9742 0.691406 42.3572C0.691406 65.7403 19.854 84.6959 43.4924 84.6959H225.807C249.445 84.6959 268.607 65.7403 268.607 42.3572C268.607 18.9742 249.445 0.0185547 225.807 0.0185547Z" fill="#424242"/>
<path d="M51.6285 27.4277L56.2143 39.687L68.6075 44.2236L56.2143 48.7597L51.6285 61.019L47.0425 48.7597L34.6494 44.2236L47.0425 39.687L51.6285 27.4277Z" fill="#FFDD7D" stroke="#FFDD7D" stroke-width="2.98299" stroke-linecap="round" stroke-linejoin="round"/>
<path d="M67.6617 23.6953L68.9354 27.1006L72.3781 28.3607L68.9354 29.6208L67.6617 33.0261L66.388 29.6208L62.9453 28.3607L66.388 27.1006L67.6617 23.6953Z" fill="#FFDD7D" stroke="#FFDD7D" stroke-width="2.98299" stroke-linecap="round" stroke-linejoin="round"/>
<path d="M110.205 61.6549C105.064 61.6549 100.98 59.9452 97.953 56.5263C94.944 53.0906 93.4395 48.4552 93.4395 42.6212C93.4395 36.8378 94.9612 32.2281 98.0046 28.7924C101.048 25.3392 105.115 23.6128 110.205 23.6128C114.263 23.6128 117.702 24.7354 120.522 26.9807C123.359 29.2089 125.07 32.16 125.655 35.8343H120.961C120.358 33.4189 119.077 31.4881 117.117 30.0424C115.157 28.5795 112.853 27.8484 110.205 27.8484C106.577 27.8484 103.67 29.1922 101.487 31.8793C99.3032 34.5668 98.2112 38.1477 98.2112 42.6212C98.2112 47.1457 99.2945 50.7429 101.461 53.4137C103.628 56.0841 106.551 57.4192 110.23 57.4192C112.965 57.4192 115.269 56.7984 117.143 55.5566C119.017 54.3152 120.29 52.5717 120.961 50.3264H125.655C124.795 53.9665 123.032 56.7645 120.367 58.7206C117.702 60.6767 114.314 61.6549 110.205 61.6549ZM130.452 61.0422V34.5076H134.682V38.8449H134.785C135.233 37.3649 136.032 36.1998 137.184 35.3493C138.353 34.482 139.72 34.0483 141.285 34.0483C141.646 34.0483 142.248 34.1079 143.091 34.227V38.539C142.609 38.3688 141.81 38.2835 140.692 38.2835C138.955 38.2835 137.562 38.8535 136.514 39.9932C135.464 41.1326 134.94 42.638 134.94 44.5091V61.0422H130.452ZM156.219 37.901C154.138 37.901 152.411 38.6153 151.035 40.0443C149.676 41.4557 148.929 43.2759 148.791 45.5041H163.364C163.312 43.2588 162.633 41.4304 161.326 40.0185C160.019 38.6067 158.317 37.901 156.219 37.901ZM163.261 53.439H167.671C167.276 55.7862 166.038 57.717 163.957 59.2309C161.893 60.7448 159.409 61.5015 156.503 61.5015C152.668 61.5015 149.651 60.2769 147.45 57.8276C145.249 55.3783 144.148 52.0614 144.148 47.8771C144.148 43.7268 145.249 40.3845 147.45 37.8499C149.668 35.3154 152.617 34.0483 156.296 34.0483C159.907 34.0483 162.762 35.2473 164.86 37.6455C166.958 40.0443 168.006 43.2588 168.006 47.2901V48.9741H148.765V49.2294C148.765 51.7807 149.47 53.8216 150.88 55.3526C152.29 56.8836 154.199 57.649 156.606 57.649C158.291 57.649 159.727 57.2663 160.914 56.501C162.1 55.7353 162.882 54.715 163.261 53.439ZM181.393 57.7256C183.508 57.7256 185.279 57.079 186.706 55.7862C188.151 54.4768 188.873 52.8691 188.873 50.9644V48.7954L181.702 49.2294C179.897 49.3482 178.496 49.7822 177.498 50.5304C176.518 51.2789 176.028 52.2825 176.028 53.541C176.028 54.7999 176.518 55.812 177.498 56.5773C178.478 57.343 179.777 57.7256 181.393 57.7256ZM180.387 61.5015C177.722 61.5015 175.564 60.7701 173.913 59.3072C172.28 57.8448 171.463 55.9226 171.463 53.541C171.463 51.2618 172.305 49.4419 173.991 48.0811C175.693 46.7202 178.091 45.9549 181.187 45.7848L188.873 45.3511V43.1312C188.873 41.5153 188.357 40.2483 187.325 39.3296C186.294 38.4113 184.849 37.9519 182.992 37.9519C181.29 37.9519 179.906 38.326 178.84 39.0746C177.774 39.806 177.094 40.8348 176.802 42.1618H172.468C172.624 39.7974 173.655 37.8585 175.564 36.3446C177.49 34.8136 180 34.0483 183.096 34.0483C186.242 34.0483 188.735 34.8308 190.575 36.3956C192.432 37.9605 193.361 40.061 193.361 42.6975V61.0422H189.105V56.4753H189.002C188.194 57.9892 187.007 59.2053 185.442 60.1239C183.878 61.0422 182.193 61.5015 180.387 61.5015ZM200.505 28.1034H204.994V34.5076H210.204V38.1559H204.994V53.924C204.994 55.1315 205.26 56.0246 205.793 56.6029C206.327 57.1643 207.168 57.445 208.321 57.445C209.042 57.445 209.662 57.4021 210.178 57.3173V61.0422C209.593 61.1784 208.648 61.2466 207.34 61.2466C204.882 61.2466 203.128 60.7024 202.079 59.6136C201.03 58.5248 200.505 56.7049 200.505 54.1537V38.1559H196.508V34.5076H200.505V28.1034ZM224.983 37.901C222.903 37.901 221.174 38.6153 219.799 40.0443C218.44 41.4557 217.692 43.2759 217.555 45.5041H232.127C232.075 43.2588 231.396 41.4304 230.09 40.0185C228.783 38.6067 227.081 37.901 224.983 37.901ZM232.025 53.439H236.435C236.039 55.7862 234.802 57.717 232.721 59.2309C230.658 60.7448 228.173 61.5015 225.266 61.5015C221.432 61.5015 218.414 60.2769 216.213 57.8276C214.012 55.3783 212.912 52.0614 212.912 47.8771C212.912 43.7268 214.012 40.3845 216.213 37.8499C218.432 35.3154 221.381 34.0483 225.06 34.0483C228.671 34.0483 231.526 35.2473 233.624 37.6455C235.721 40.0443 236.771 43.2588 236.771 47.2901V48.9741H217.528V49.2294C217.528 51.7807 218.234 53.8216 219.644 55.3526C221.054 56.8836 222.962 57.649 225.37 57.649C227.055 57.649 228.49 57.2663 229.677 56.501C230.863 55.7353 231.646 54.715 232.025 53.439Z" fill="#FFDD7D"/>
</g>
<defs>
<filter id="filter0_dd_220_1680" x="-58.9683" y="-48.455" width="387.236" height="203.997" filterUnits="userSpaceOnUse" color-interpolation-filters="sRGB">
<feFlood flood-opacity="0" result="BackgroundImageFix"/>
<feColorMatrix in="SourceAlpha" type="matrix" values="0 0 0 0 0 0 0 0 0 0 0 0 0 0 0 0 0 0 127 0" result="hardAlpha"/>
<feOffset dy="11.1862"/>
<feGaussianBlur stdDeviation="29.8299"/>
<feColorMatrix type="matrix" values="0 0 0 0 0 0 0 0 0 0 0 0 0 0 0 0 0 0 0.08 0"/>
<feBlend mode="normal" in2="BackgroundImageFix" result="effect1_dropShadow_220_1680"/>
<feColorMatrix in="SourceAlpha" type="matrix" values="0 0 0 0 0 0 0 0 0 0 0 0 0 0 0 0 0 0 127 0" result="hardAlpha"/>
<feOffset dy="7.45745"/>
<feGaussianBlur stdDeviation="3.72873"/>
<feColorMatrix type="matrix" values="0 0 0 0 0 0 0 0 0 0 0 0 0 0 0 0 0 0 0.03 0"/>
<feBlend mode="normal" in2="effect1_dropShadow_220_1680" result="effect2_dropShadow_220_1680"/>
<feBlend mode="normal" in="SourceGraphic" in2="effect2_dropShadow_220_1680" result="shape"/>
</filter>
</defs>
</svg>
