<svg width="100%" height="100%" style="overflow:visible;" preserveAspectRatio="none" viewBox="0 0 156.4 204" fill="none" xmlns="http://www.w3.org/2000/svg">
<g filter="url(#filter0_dd_220_1669)">
<path d="M314.934 -0.00146484H43.6858C20.0474 -0.00146484 0.884766 18.9542 0.884766 42.3372C0.884766 65.7203 20.0474 84.6759 43.6858 84.6759H314.934C338.574 84.6759 357.736 65.7203 357.736 42.3372C357.736 18.9542 338.574 -0.00146484 314.934 -0.00146484Z" fill="#424242"/>
<path d="M95.2324 24.2051H108.516C112.006 24.2051 114.861 25.311 117.079 27.522C119.314 29.7164 120.432 32.5483 120.432 36.0182C120.432 39.5053 119.314 42.3544 117.079 44.5658C114.843 46.7768 111.972 47.8824 108.464 47.8824H99.8752V61.0226H95.2324V24.2051ZM99.8752 28.2873V43.8001H107.303C109.952 43.8001 112.006 43.1197 113.468 41.7591C114.93 40.3812 115.66 38.4675 115.66 36.0182C115.66 33.569 114.93 31.6724 113.468 30.3287C112.023 28.9678 109.968 28.2873 107.303 28.2873H99.8752ZM125.075 61.0226V34.4876H129.304V38.8249H129.408C129.855 37.3452 130.655 36.1798 131.806 35.3297C132.976 34.4619 134.343 34.0283 135.908 34.0283C136.268 34.0283 136.871 34.0878 137.713 34.207V38.5189C137.231 38.3488 136.432 38.2635 135.314 38.2635C133.578 38.2635 132.185 38.8335 131.136 39.9732C130.087 41.1126 129.563 42.6179 129.563 44.4891V61.0226H125.075ZM151.203 61.4815C147.454 61.4815 144.445 60.2483 142.175 57.7819C139.905 55.2988 138.771 51.9565 138.771 47.7551C138.771 43.5537 139.905 40.2196 142.175 37.7532C144.445 35.2701 147.454 34.0283 151.203 34.0283C154.934 34.0283 157.934 35.2701 160.204 37.7532C162.474 40.2196 163.609 43.5537 163.609 47.7551C163.609 51.9394 162.474 55.2731 160.204 57.7566C157.934 60.2401 154.934 61.4815 151.203 61.4815ZM145.451 54.9757C146.878 56.7107 148.795 57.5779 151.203 57.5779C153.61 57.5779 155.519 56.7188 156.929 55.001C158.339 53.266 159.044 50.8505 159.044 47.7551C159.044 44.6593 158.339 42.2524 156.929 40.5345C155.519 38.7995 153.61 37.9319 151.203 37.9319C148.795 37.9319 146.878 38.7995 145.451 40.5345C144.041 42.2695 143.336 44.6764 143.336 47.7551C143.336 50.8338 144.041 53.2407 145.451 54.9757ZM178.311 61.4815C174.872 61.4815 172.095 60.2316 169.98 57.7309C167.882 55.2306 166.833 51.9051 166.833 47.7551C166.833 43.6215 167.882 40.3049 169.98 37.8042C172.078 35.2868 174.82 34.0283 178.208 34.0283C180.099 34.0283 181.793 34.4534 183.289 35.3039C184.785 36.1545 185.937 37.3196 186.745 38.7995H186.848V24.2051H191.336V61.0226H187.055V56.532H186.977C186.101 58.0797 184.914 59.2958 183.418 60.1805C181.922 61.0479 180.22 61.4815 178.311 61.4815ZM179.162 37.9319C176.789 37.9319 174.907 38.8249 173.513 40.6108C172.121 42.38 171.424 44.7613 171.424 47.7551C171.424 50.7657 172.121 53.1555 173.513 54.9243C174.907 56.6935 176.789 57.5779 179.162 57.5779C181.483 57.5779 183.349 56.6849 184.759 54.899C186.169 53.0959 186.874 50.7147 186.874 47.7551C186.874 44.7951 186.161 42.4225 184.733 40.6365C183.323 38.8335 181.467 37.9319 179.162 37.9319ZM219.424 34.4876V61.0226H215.169V56.7107H215.066C213.398 59.8914 210.56 61.4815 206.554 61.4815C203.648 61.4815 201.37 60.6143 199.719 58.8793C198.085 57.1272 197.269 54.7374 197.269 51.7097V34.4876H201.757V50.9187C201.757 55.3412 203.82 57.5526 207.947 57.5526C210.113 57.5526 211.816 56.8807 213.054 55.537C214.309 54.1761 214.937 52.3559 214.937 50.0767V34.4876H219.424ZM247.539 43.1878H243.155C242.811 41.6572 242.045 40.3983 240.859 39.4118C239.689 38.4251 238.168 37.9319 236.293 37.9319C233.954 37.9319 232.072 38.8249 230.645 40.6108C229.218 42.38 228.504 44.7613 228.504 47.7551C228.504 50.7996 229.218 53.1978 230.645 54.9499C232.089 56.702 233.989 57.5779 236.345 57.5779C238.151 57.5779 239.637 57.1357 240.807 56.2513C241.993 55.3497 242.784 54.0909 243.18 52.475H247.591C247.247 55.1286 246.035 57.2972 243.954 58.9813C241.891 60.6481 239.346 61.4815 236.319 61.4815C232.57 61.4815 229.57 60.2569 227.317 57.8076C225.065 55.3412 223.939 51.9903 223.939 47.7551C223.939 43.5876 225.065 40.2621 227.317 37.7789C229.57 35.2782 232.553 34.0283 236.268 34.0283C239.466 34.0283 242.062 34.9213 244.057 36.7072C246.069 38.4932 247.23 40.6533 247.539 43.1878ZM253.161 28.0834H257.65V34.4876H262.859V38.1359H257.65V53.904C257.65 55.1115 257.916 56.0045 258.45 56.5829C258.983 57.1443 259.825 57.425 260.977 57.425C261.699 57.425 262.318 57.3825 262.834 57.2972V61.0226C262.249 61.1584 261.304 61.2266 259.997 61.2266C257.538 61.2266 255.784 60.6823 254.735 59.5936C253.687 58.5052 253.161 56.6849 253.161 54.1336V38.1359H249.164V34.4876H253.161V28.0834ZM267.89 61.0226V34.4876H272.377V61.0226H267.89ZM270.133 30.0223C269.377 30.0223 268.723 29.7502 268.173 29.206C267.623 28.6618 267.348 28.0152 267.348 27.2671C267.348 26.5014 267.623 25.8552 268.173 25.3277C268.723 24.7835 269.377 24.5114 270.133 24.5114C270.907 24.5114 271.569 24.7835 272.119 25.3277C272.67 25.8552 272.945 26.5014 272.945 27.2671C272.945 28.0152 272.67 28.6618 272.119 29.206C271.569 29.7502 270.907 30.0223 270.133 30.0223ZM300.441 34.4876L290.588 61.0226H285.996L276.117 34.4876H280.838L288.24 56.3023H288.343L295.772 34.4876H300.441ZM313.956 37.8808C311.875 37.8808 310.147 38.5952 308.772 40.0242C307.413 41.4357 306.665 43.2559 306.527 45.4841H321.101C321.049 43.2388 320.369 41.4104 319.063 39.9985C317.755 38.5866 316.053 37.8808 313.956 37.8808ZM320.997 53.4189H325.407C325.013 55.7662 323.774 57.697 321.694 59.2109C319.63 60.7248 317.145 61.4815 314.239 61.4815C310.405 61.4815 307.387 60.2569 305.186 57.8076C302.985 55.3583 301.885 52.0414 301.885 47.8571C301.885 43.7067 302.985 40.3645 305.186 37.8299C307.405 35.2953 310.353 34.0283 314.034 34.0283C317.644 34.0283 320.499 35.2273 322.596 37.6259C324.694 40.0242 325.743 43.2388 325.743 47.27V48.9541H306.502V49.2094C306.502 51.7607 307.206 53.802 308.616 55.3326C310.026 56.8636 311.935 57.629 314.342 57.629C316.027 57.629 317.463 57.2463 318.65 56.4809C319.836 55.7153 320.619 54.695 320.997 53.4189Z" fill="#ABA3FE"/>
</g>
<defs>
<filter id="filter0_dd_220_1669" x="-58.775" y="-48.475" width="476.171" height="203.997" filterUnits="userSpaceOnUse" color-interpolation-filters="sRGB">
<feFlood flood-opacity="0" result="BackgroundImageFix"/>
<feColorMatrix in="SourceAlpha" type="matrix" values="0 0 0 0 0 0 0 0 0 0 0 0 0 0 0 0 0 0 127 0" result="hardAlpha"/>
<feOffset dy="11.1862"/>
<feGaussianBlur stdDeviation="29.8299"/>
<feColorMatrix type="matrix" values="0 0 0 0 0 0 0 0 0 0 0 0 0 0 0 0 0 0 0.08 0"/>
<feBlend mode="normal" in2="BackgroundImageFix" result="effect1_dropShadow_220_1669"/>
<feColorMatrix in="SourceAlpha" type="matrix" values="0 0 0 0 0 0 0 0 0 0 0 0 0 0 0 0 0 0 127 0" result="hardAlpha"/>
<feOffset dy="7.45745"/>
<feGaussianBlur stdDeviation="3.72873"/>
<feColorMatrix type="matrix" values="0 0 0 0 0 0 0 0 0 0 0 0 0 0 0 0 0 0 0.03 0"/>
<feBlend mode="normal" in2="effect1_dropShadow_220_1669" result="effect2_dropShadow_220_1669"/>
<feBlend mode="normal" in="SourceGraphic" in2="effect2_dropShadow_220_1669" result="shape"/>
</filter>
</defs>
</svg>
