<svg width="100%" height="100%" style="overflow:visible;" preserveAspectRatio="none" viewBox="0 0 161 27.15" fill="none" xmlns="http://www.w3.org/2000/svg">
<g clip-path="url(#clip0_220_1802)">
<g clip-path="url(#clip1_220_1802)">
<path d="M24.6151 9.70525L17.8807 8.72653L14.8704 2.6235C14.7881 2.45639 14.6528 2.32113 14.4857 2.2389C14.0666 2.03202 13.5574 2.20443 13.3479 2.6235L10.3374 8.72653L3.60313 9.70525C3.41746 9.73177 3.24771 9.8193 3.11775 9.95192C2.96062 10.1134 2.87404 10.3307 2.87703 10.556C2.88002 10.7812 2.97232 10.9962 3.13366 11.1534L8.00601 15.9038L6.85489 22.6116C6.8279 22.7676 6.84516 22.9281 6.90473 23.0748C6.9643 23.2215 7.0638 23.3486 7.19192 23.4417C7.32005 23.5348 7.47168 23.59 7.62964 23.6013C7.78759 23.6125 7.94554 23.5794 8.08558 23.5054L14.1091 20.3386L20.1326 23.5054C20.297 23.5929 20.488 23.6221 20.671 23.5903C21.1326 23.5107 21.4428 23.0731 21.3632 22.6116L20.2121 15.9038L25.0845 11.1534C25.2171 11.0234 25.3046 10.8537 25.3312 10.6681C25.4028 10.2039 25.0792 9.77421 24.6151 9.70525Z" fill="#9B07B7"/>
<path d="M24.6151 9.70525L17.8807 8.72653L14.8704 2.6235C14.7881 2.45639 14.6528 2.32113 14.4857 2.2389C14.0666 2.03202 13.5574 2.20443 13.3479 2.6235L10.3374 8.72653L3.60313 9.70525C3.41746 9.73177 3.24771 9.8193 3.11775 9.95192C2.96062 10.1134 2.87404 10.3307 2.87703 10.556C2.88002 10.7812 2.97232 10.9962 3.13366 11.1534L8.00601 15.9038L6.85489 22.6116C6.8279 22.7676 6.84516 22.9281 6.90473 23.0748C6.9643 23.2215 7.0638 23.3486 7.19192 23.4417C7.32005 23.5348 7.47168 23.59 7.62964 23.6013C7.78759 23.6125 7.94554 23.5794 8.08558 23.5054L14.1091 20.3386L20.1326 23.5054C20.297 23.5929 20.488 23.6221 20.671 23.5903C21.1326 23.5107 21.4428 23.0731 21.3632 22.6116L20.2121 15.9038L25.0845 11.1534C25.2171 11.0234 25.3046 10.8537 25.3312 10.6681C25.4028 10.2039 25.0792 9.77421 24.6151 9.70525Z" fill="url(#paint0_linear_220_1802)"/>
<path d="M57.8122 9.70525L51.078 8.72653L48.0675 2.6235C47.9853 2.45639 47.8501 2.32113 47.683 2.2389C47.2639 2.03202 46.7546 2.20443 46.5451 2.6235L43.5347 8.72653L36.8004 9.70525C36.6148 9.73177 36.445 9.8193 36.315 9.95192C36.1579 10.1134 36.0713 10.3307 36.0743 10.556C36.0773 10.7812 36.1696 10.9962 36.3309 11.1534L41.2033 15.9038L40.0521 22.6116C40.0252 22.7676 40.0425 22.9281 40.102 23.0748C40.1616 23.2215 40.2611 23.3486 40.3892 23.4417C40.5174 23.5348 40.669 23.59 40.8269 23.6013C40.9849 23.6125 41.1429 23.5794 41.2829 23.5054L47.3063 20.3386L53.3298 23.5054C53.4942 23.5929 53.6852 23.6221 53.8682 23.5903C54.3297 23.5107 54.64 23.0731 54.5605 22.6116L53.4094 15.9038L58.2817 11.1534C58.4143 11.0234 58.5019 10.8537 58.5284 10.6681C58.6 10.2039 58.2764 9.77421 57.8122 9.70525Z" fill="#9B07B7"/>
<path d="M57.8122 9.70525L51.078 8.72653L48.0675 2.6235C47.9853 2.45639 47.8501 2.32113 47.683 2.2389C47.2639 2.03202 46.7546 2.20443 46.5451 2.6235L43.5347 8.72653L36.8004 9.70525C36.6148 9.73177 36.445 9.8193 36.315 9.95192C36.1579 10.1134 36.0713 10.3307 36.0743 10.556C36.0773 10.7812 36.1696 10.9962 36.3309 11.1534L41.2033 15.9038L40.0521 22.6116C40.0252 22.7676 40.0425 22.9281 40.102 23.0748C40.1616 23.2215 40.2611 23.3486 40.3892 23.4417C40.5174 23.5348 40.669 23.59 40.8269 23.6013C40.9849 23.6125 41.1429 23.5794 41.2829 23.5054L47.3063 20.3386L53.3298 23.5054C53.4942 23.5929 53.6852 23.6221 53.8682 23.5903C54.3297 23.5107 54.64 23.0731 54.5605 22.6116L53.4094 15.9038L58.2817 11.1534C58.4143 11.0234 58.5019 10.8537 58.5284 10.6681C58.6 10.2039 58.2764 9.77421 57.8122 9.70525Z" fill="url(#paint1_linear_220_1802)"/>
<path d="M91.0066 9.70525L84.2723 8.72653L81.2619 2.6235C81.1796 2.45639 81.0443 2.32113 80.8773 2.2389C80.4582 2.03202 79.949 2.20443 79.7395 2.6235L76.729 8.72653L69.9947 9.70525C69.809 9.73177 69.6393 9.8193 69.5094 9.95192C69.3522 10.1134 69.2656 10.3307 69.2686 10.556C69.2715 10.7812 69.3639 10.9962 69.5252 11.1534L74.3975 15.9038L73.2465 22.6116C73.2195 22.7676 73.2367 22.9281 73.2963 23.0748C73.3559 23.2215 73.4554 23.3486 73.5834 23.4417C73.7116 23.5348 73.8633 23.59 74.0212 23.6013C74.1792 23.6125 74.3371 23.5794 74.4771 23.5054L80.5006 20.3386L86.5241 23.5054C86.6886 23.5929 86.8795 23.6221 87.0626 23.5903C87.5241 23.5107 87.8344 23.0731 87.7548 22.6116L86.6037 15.9038L91.4761 11.1534C91.6087 11.0234 91.6962 10.8537 91.7228 10.6681C91.7944 10.2039 91.4708 9.77421 91.0066 9.70525Z" fill="#9B07B7"/>
<path d="M91.0066 9.70525L84.2723 8.72653L81.2619 2.6235C81.1796 2.45639 81.0443 2.32113 80.8773 2.2389C80.4582 2.03202 79.949 2.20443 79.7395 2.6235L76.729 8.72653L69.9947 9.70525C69.809 9.73177 69.6393 9.8193 69.5094 9.95192C69.3522 10.1134 69.2656 10.3307 69.2686 10.556C69.2715 10.7812 69.3639 10.9962 69.5252 11.1534L74.3975 15.9038L73.2465 22.6116C73.2195 22.7676 73.2367 22.9281 73.2963 23.0748C73.3559 23.2215 73.4554 23.3486 73.5834 23.4417C73.7116 23.5348 73.8633 23.59 74.0212 23.6013C74.1792 23.6125 74.3371 23.5794 74.4771 23.5054L80.5006 20.3386L86.5241 23.5054C86.6886 23.5929 86.8795 23.6221 87.0626 23.5903C87.5241 23.5107 87.8344 23.0731 87.7548 22.6116L86.6037 15.9038L91.4761 11.1534C91.6087 11.0234 91.6962 10.8537 91.7228 10.6681C91.7944 10.2039 91.4708 9.77421 91.0066 9.70525Z" fill="url(#paint2_linear_220_1802)"/>
<path d="M124.204 9.70525L117.469 8.72653L114.46 2.6235C114.377 2.45639 114.241 2.32113 114.074 2.2389C113.656 2.03202 113.146 2.20443 112.937 2.6235L109.926 8.72653L103.192 9.70525C103.006 9.73177 102.837 9.8193 102.706 9.95192C102.549 10.1134 102.463 10.3307 102.466 10.556C102.469 10.7812 102.561 10.9962 102.722 11.1534L107.595 15.9038L106.443 22.6116C106.417 22.7676 106.434 22.9281 106.494 23.0748C106.553 23.2215 106.653 23.3486 106.78 23.4417C106.909 23.5348 107.061 23.59 107.219 23.6013C107.377 23.6125 107.535 23.5794 107.675 23.5054L113.698 20.3386L119.722 23.5054C119.886 23.5929 120.077 23.6221 120.26 23.5903C120.721 23.5107 121.031 23.0731 120.952 22.6116L119.801 15.9038L124.674 11.1534C124.806 11.0234 124.893 10.8537 124.92 10.6681C124.992 10.2039 124.668 9.77421 124.204 9.70525Z" fill="#9B07B7"/>
<path d="M124.204 9.70525L117.469 8.72653L114.46 2.6235C114.377 2.45639 114.241 2.32113 114.074 2.2389C113.656 2.03202 113.146 2.20443 112.937 2.6235L109.926 8.72653L103.192 9.70525C103.006 9.73177 102.837 9.8193 102.706 9.95192C102.549 10.1134 102.463 10.3307 102.466 10.556C102.469 10.7812 102.561 10.9962 102.722 11.1534L107.595 15.9038L106.443 22.6116C106.417 22.7676 106.434 22.9281 106.494 23.0748C106.553 23.2215 106.653 23.3486 106.78 23.4417C106.909 23.5348 107.061 23.59 107.219 23.6013C107.377 23.6125 107.535 23.5794 107.675 23.5054L113.698 20.3386L119.722 23.5054C119.886 23.5929 120.077 23.6221 120.26 23.5903C120.721 23.5107 121.031 23.0731 120.952 22.6116L119.801 15.9038L124.674 11.1534C124.806 11.0234 124.893 10.8537 124.92 10.6681C124.992 10.2039 124.668 9.77421 124.204 9.70525Z" fill="url(#paint3_linear_220_1802)"/>
<path d="M157.397 9.70525L150.663 8.72653L147.653 2.6235C147.57 2.45639 147.435 2.32113 147.268 2.2389C146.849 2.03202 146.339 2.20443 146.13 2.6235L143.12 8.72653L136.386 9.70525C136.199 9.73177 136.03 9.8193 135.9 9.95192C135.743 10.1134 135.656 10.3307 135.659 10.556C135.662 10.7812 135.755 10.9962 135.916 11.1534L140.788 15.9038L139.637 22.6116C139.611 22.7676 139.628 22.9281 139.687 23.0748C139.746 23.2215 139.846 23.3486 139.975 23.4417C140.102 23.5348 140.254 23.59 140.412 23.6013C140.57 23.6125 140.728 23.5794 140.868 23.5054L146.891 20.3386L152.915 23.5054C153.079 23.5929 153.27 23.6221 153.453 23.5903C153.915 23.5107 154.225 23.0731 154.145 22.6116L152.994 15.9038L157.867 11.1534C157.999 11.0234 158.087 10.8537 158.114 10.6681C158.185 10.2039 157.861 9.77421 157.397 9.70525Z" fill="#9B07B7"/>
<path d="M157.397 9.70525L150.663 8.72653L147.653 2.6235C147.57 2.45639 147.435 2.32113 147.268 2.2389C146.849 2.03202 146.339 2.20443 146.13 2.6235L143.12 8.72653L136.386 9.70525C136.199 9.73177 136.03 9.8193 135.9 9.95192C135.743 10.1134 135.656 10.3307 135.659 10.556C135.662 10.7812 135.755 10.9962 135.916 11.1534L140.788 15.9038L139.637 22.6116C139.611 22.7676 139.628 22.9281 139.687 23.0748C139.746 23.2215 139.846 23.3486 139.975 23.4417C140.102 23.5348 140.254 23.59 140.412 23.6013C140.57 23.6125 140.728 23.5794 140.868 23.5054L146.891 20.3386L152.915 23.5054C153.079 23.5929 153.27 23.6221 153.453 23.5903C153.915 23.5107 154.225 23.0731 154.145 22.6116L152.994 15.9038L157.867 11.1534C157.999 11.0234 158.087 10.8537 158.114 10.6681C158.185 10.2039 157.861 9.77421 157.397 9.70525Z" fill="url(#paint4_linear_220_1802)"/>
</g>
</g>
<defs>
<linearGradient id="paint0_linear_220_1802" x1="14.109" y1="2.15137" x2="14.109" y2="23.6035" gradientUnits="userSpaceOnUse">
<stop stop-color="#FDD974"/>
<stop offset="1" stop-color="#FABB61"/>
</linearGradient>
<linearGradient id="paint1_linear_220_1802" x1="47.3063" y1="2.15137" x2="47.3063" y2="23.6035" gradientUnits="userSpaceOnUse">
<stop stop-color="#FDD974"/>
<stop offset="1" stop-color="#FABB61"/>
</linearGradient>
<linearGradient id="paint2_linear_220_1802" x1="80.5006" y1="2.15137" x2="80.5006" y2="23.6035" gradientUnits="userSpaceOnUse">
<stop stop-color="#FDD974"/>
<stop offset="1" stop-color="#FABB61"/>
</linearGradient>
<linearGradient id="paint3_linear_220_1802" x1="113.698" y1="2.15137" x2="113.698" y2="23.6035" gradientUnits="userSpaceOnUse">
<stop stop-color="#FDD974"/>
<stop offset="1" stop-color="#FABB61"/>
</linearGradient>
<linearGradient id="paint4_linear_220_1802" x1="146.891" y1="2.15137" x2="146.891" y2="23.6035" gradientUnits="userSpaceOnUse">
<stop stop-color="#FDD974"/>
<stop offset="1" stop-color="#FABB61"/>
</linearGradient>
<clipPath id="clip0_220_1802">
<rect width="161" height="27.15" fill="white" transform="translate(0 0.339844)"/>
</clipPath>
<clipPath id="clip1_220_1802">
<rect width="161" height="27.15" fill="white" transform="translate(0 0.339844)"/>
</clipPath>
</defs>
</svg>
