<svg width="100%" height="100%" style="overflow:visible;" preserveAspectRatio="none" viewBox="0 0 161 27.15" fill="none" xmlns="http://www.w3.org/2000/svg">
<g clip-path="url(#clip0_220_1870)">
<g clip-path="url(#clip1_220_1870)">
<path d="M24.6151 9.70525L17.8807 8.72653L14.8704 2.6235C14.7881 2.45639 14.6528 2.32113 14.4857 2.2389C14.0666 2.03202 13.5574 2.20443 13.3479 2.6235L10.3374 8.72653L3.60313 9.70525C3.41746 9.73177 3.24771 9.8193 3.11775 9.95192C2.96062 10.1134 2.87404 10.3307 2.87703 10.556C2.88002 10.7812 2.97232 10.9962 3.13366 11.1534L8.00601 15.9038L6.85489 22.6116C6.8279 22.7676 6.84516 22.9281 6.90473 23.0748C6.9643 23.2215 7.0638 23.3486 7.19192 23.4417C7.32005 23.5348 7.47168 23.59 7.62964 23.6013C7.78759 23.6125 7.94554 23.5794 8.08558 23.5054L14.1091 20.3386L20.1326 23.5054C20.297 23.5929 20.488 23.6221 20.671 23.5903C21.1326 23.5107 21.4428 23.0731 21.3632 22.6116L20.2121 15.9038L25.0845 11.1534C25.2171 11.0234 25.3046 10.8537 25.3312 10.6681C25.4028 10.2039 25.0792 9.77421 24.6151 9.70525Z" fill="#9B07B7"/>
<path d="M24.6151 9.70525L17.8807 8.72653L14.8704 2.6235C14.7881 2.45639 14.6528 2.32113 14.4857 2.2389C14.0666 2.03202 13.5574 2.20443 13.3479 2.6235L10.3374 8.72653L3.60313 9.70525C3.41746 9.73177 3.24771 9.8193 3.11775 9.95192C2.96062 10.1134 2.87404 10.3307 2.87703 10.556C2.88002 10.7812 2.97232 10.9962 3.13366 11.1534L8.00601 15.9038L6.85489 22.6116C6.8279 22.7676 6.84516 22.9281 6.90473 23.0748C6.9643 23.2215 7.0638 23.3486 7.19192 23.4417C7.32005 23.5348 7.47168 23.59 7.62964 23.6013C7.78759 23.6125 7.94554 23.5794 8.08558 23.5054L14.1091 20.3386L20.1326 23.5054C20.297 23.5929 20.488 23.6221 20.671 23.5903C21.1326 23.5107 21.4428 23.0731 21.3632 22.6116L20.2121 15.9038L25.0845 11.1534C25.2171 11.0234 25.3046 10.8537 25.3312 10.6681C25.4028 10.2039 25.0792 9.77421 24.6151 9.70525Z" fill="url(#paint0_linear_220_1870)"/>
<path d="M57.8122 9.70525L51.078 8.72653L48.0675 2.6235C47.9853 2.45639 47.8501 2.32113 47.683 2.2389C47.2639 2.03202 46.7546 2.20443 46.5451 2.6235L43.5347 8.72653L36.8004 9.70525C36.6148 9.73177 36.445 9.8193 36.315 9.95192C36.1579 10.1134 36.0713 10.3307 36.0743 10.556C36.0773 10.7812 36.1696 10.9962 36.3309 11.1534L41.2033 15.9038L40.0521 22.6116C40.0252 22.7676 40.0425 22.9281 40.102 23.0748C40.1616 23.2215 40.2611 23.3486 40.3892 23.4417C40.5174 23.5348 40.669 23.59 40.8269 23.6013C40.9849 23.6125 41.1429 23.5794 41.2829 23.5054L47.3063 20.3386L53.3298 23.5054C53.4942 23.5929 53.6852 23.6221 53.8682 23.5903C54.3297 23.5107 54.64 23.0731 54.5605 22.6116L53.4094 15.9038L58.2817 11.1534C58.4143 11.0234 58.5019 10.8537 58.5284 10.6681C58.6 10.2039 58.2764 9.77421 57.8122 9.70525Z" fill="#9B07B7"/>
<path d="M57.8122 9.70525L51.078 8.72653L48.0675 2.6235C47.9853 2.45639 47.8501 2.32113 47.683 2.2389C47.2639 2.03202 46.7546 2.20443 46.5451 2.6235L43.5347 8.72653L36.8004 9.70525C36.6148 9.73177 36.445 9.8193 36.315 9.95192C36.1579 10.1134 36.0713 10.3307 36.0743 10.556C36.0773 10.7812 36.1696 10.9962 36.3309 11.1534L41.2033 15.9038L40.0521 22.6116C40.0252 22.7676 40.0425 22.9281 40.102 23.0748C40.1616 23.2215 40.2611 23.3486 40.3892 23.4417C40.5174 23.5348 40.669 23.59 40.8269 23.6013C40.9849 23.6125 41.1429 23.5794 41.2829 23.5054L47.3063 20.3386L53.3298 23.5054C53.4942 23.5929 53.6852 23.6221 53.8682 23.5903C54.3297 23.5107 54.64 23.0731 54.5605 22.6116L53.4094 15.9038L58.2817 11.1534C58.4143 11.0234 58.5019 10.8537 58.5284 10.6681C58.6 10.2039 58.2764 9.77421 57.8122 9.70525Z" fill="url(#paint1_linear_220_1870)"/>
<path d="M91.0056 9.70525L84.2713 8.72653L81.2609 2.6235C81.1786 2.45639 81.0433 2.32113 80.8763 2.2389C80.4572 2.03202 79.948 2.20443 79.7385 2.6235L76.728 8.72653L69.9937 9.70525C69.808 9.73177 69.6383 9.8193 69.5084 9.95192C69.3513 10.1134 69.2646 10.3307 69.2677 10.556C69.2706 10.7812 69.3629 10.9962 69.5243 11.1534L74.3966 15.9038L73.2455 22.6116C73.2185 22.7676 73.2357 22.9281 73.2953 23.0748C73.3549 23.2215 73.4544 23.3486 73.5825 23.4417C73.7106 23.5348 73.8623 23.59 74.0203 23.6013C74.1782 23.6125 74.3361 23.5794 74.4761 23.5054L80.4996 20.3386L86.5231 23.5054C86.6876 23.5929 86.8785 23.6221 87.0616 23.5903C87.5231 23.5107 87.8334 23.0731 87.7538 22.6116L86.6027 15.9038L91.4751 11.1534C91.6077 11.0234 91.6952 10.8537 91.7218 10.6681C91.7934 10.2039 91.4698 9.77421 91.0056 9.70525Z" fill="#9B07B7"/>
<path d="M91.0056 9.70525L84.2713 8.72653L81.2609 2.6235C81.1786 2.45639 81.0433 2.32113 80.8763 2.2389C80.4572 2.03202 79.948 2.20443 79.7385 2.6235L76.728 8.72653L69.9937 9.70525C69.808 9.73177 69.6383 9.8193 69.5084 9.95192C69.3513 10.1134 69.2646 10.3307 69.2677 10.556C69.2706 10.7812 69.3629 10.9962 69.5243 11.1534L74.3966 15.9038L73.2455 22.6116C73.2185 22.7676 73.2357 22.9281 73.2953 23.0748C73.3549 23.2215 73.4544 23.3486 73.5825 23.4417C73.7106 23.5348 73.8623 23.59 74.0203 23.6013C74.1782 23.6125 74.3361 23.5794 74.4761 23.5054L80.4996 20.3386L86.5231 23.5054C86.6876 23.5929 86.8785 23.6221 87.0616 23.5903C87.5231 23.5107 87.8334 23.0731 87.7538 22.6116L86.6027 15.9038L91.4751 11.1534C91.6077 11.0234 91.6952 10.8537 91.7218 10.6681C91.7934 10.2039 91.4698 9.77421 91.0056 9.70525Z" fill="url(#paint2_linear_220_1870)"/>
<path d="M124.203 9.70525L117.468 8.72653L114.459 2.6235C114.376 2.45639 114.24 2.32113 114.073 2.2389C113.655 2.03202 113.145 2.20443 112.936 2.6235L109.925 8.72653L103.191 9.70525C103.005 9.73177 102.836 9.8193 102.705 9.95192C102.548 10.1134 102.462 10.3307 102.465 10.556C102.468 10.7812 102.56 10.9962 102.721 11.1534L107.594 15.9038L106.442 22.6116C106.416 22.7676 106.433 22.9281 106.493 23.0748C106.552 23.2215 106.652 23.3486 106.779 23.4417C106.908 23.5348 107.06 23.59 107.218 23.6013C107.376 23.6125 107.534 23.5794 107.674 23.5054L113.697 20.3386L119.721 23.5054C119.885 23.5929 120.076 23.6221 120.259 23.5903C120.72 23.5107 121.03 23.0731 120.951 22.6116L119.8 15.9038L124.673 11.1534C124.805 11.0234 124.892 10.8537 124.919 10.6681C124.991 10.2039 124.667 9.77421 124.203 9.70525Z" fill="#9B07B7"/>
<path d="M124.203 9.70525L117.468 8.72653L114.459 2.6235C114.376 2.45639 114.24 2.32113 114.073 2.2389C113.655 2.03202 113.145 2.20443 112.936 2.6235L109.925 8.72653L103.191 9.70525C103.005 9.73177 102.836 9.8193 102.705 9.95192C102.548 10.1134 102.462 10.3307 102.465 10.556C102.468 10.7812 102.56 10.9962 102.721 11.1534L107.594 15.9038L106.442 22.6116C106.416 22.7676 106.433 22.9281 106.493 23.0748C106.552 23.2215 106.652 23.3486 106.779 23.4417C106.908 23.5348 107.06 23.59 107.218 23.6013C107.376 23.6125 107.534 23.5794 107.674 23.5054L113.697 20.3386L119.721 23.5054C119.885 23.5929 120.076 23.6221 120.259 23.5903C120.72 23.5107 121.03 23.0731 120.951 22.6116L119.8 15.9038L124.673 11.1534C124.805 11.0234 124.892 10.8537 124.919 10.6681C124.991 10.2039 124.667 9.77421 124.203 9.70525Z" fill="url(#paint3_linear_220_1870)"/>
<path d="M157.396 9.70525L150.662 8.72653L147.652 2.6235C147.569 2.45639 147.434 2.32113 147.267 2.2389C146.848 2.03202 146.338 2.20443 146.129 2.6235L143.119 8.72653L136.385 9.70525C136.198 9.73177 136.029 9.8193 135.899 9.95192C135.742 10.1134 135.655 10.3307 135.658 10.556C135.661 10.7812 135.754 10.9962 135.915 11.1534L140.787 15.9038L139.636 22.6116C139.61 22.7676 139.627 22.9281 139.686 23.0748C139.745 23.2215 139.845 23.3486 139.974 23.4417C140.101 23.5348 140.253 23.59 140.411 23.6013C140.569 23.6125 140.727 23.5794 140.867 23.5054L146.89 20.3386L152.914 23.5054C153.078 23.5929 153.269 23.6221 153.452 23.5903C153.914 23.5107 154.224 23.0731 154.144 22.6116L152.993 15.9038L157.866 11.1534C157.998 11.0234 158.086 10.8537 158.113 10.6681C158.184 10.2039 157.86 9.77421 157.396 9.70525Z" fill="#9B07B7"/>
<path d="M157.396 9.70525L150.662 8.72653L147.652 2.6235C147.569 2.45639 147.434 2.32113 147.267 2.2389C146.848 2.03202 146.338 2.20443 146.129 2.6235L143.119 8.72653L136.385 9.70525C136.198 9.73177 136.029 9.8193 135.899 9.95192C135.742 10.1134 135.655 10.3307 135.658 10.556C135.661 10.7812 135.754 10.9962 135.915 11.1534L140.787 15.9038L139.636 22.6116C139.61 22.7676 139.627 22.9281 139.686 23.0748C139.745 23.2215 139.845 23.3486 139.974 23.4417C140.101 23.5348 140.253 23.59 140.411 23.6013C140.569 23.6125 140.727 23.5794 140.867 23.5054L146.89 20.3386L152.914 23.5054C153.078 23.5929 153.269 23.6221 153.452 23.5903C153.914 23.5107 154.224 23.0731 154.144 22.6116L152.993 15.9038L157.866 11.1534C157.998 11.0234 158.086 10.8537 158.113 10.6681C158.184 10.2039 157.86 9.77421 157.396 9.70525Z" fill="url(#paint4_linear_220_1870)"/>
</g>
</g>
<defs>
<linearGradient id="paint0_linear_220_1870" x1="14.109" y1="2.15137" x2="14.109" y2="23.6035" gradientUnits="userSpaceOnUse">
<stop stop-color="#FDD974"/>
<stop offset="1" stop-color="#FABB61"/>
</linearGradient>
<linearGradient id="paint1_linear_220_1870" x1="47.3063" y1="2.15137" x2="47.3063" y2="23.6035" gradientUnits="userSpaceOnUse">
<stop stop-color="#FDD974"/>
<stop offset="1" stop-color="#FABB61"/>
</linearGradient>
<linearGradient id="paint2_linear_220_1870" x1="80.4996" y1="2.15137" x2="80.4996" y2="23.6035" gradientUnits="userSpaceOnUse">
<stop stop-color="#FDD974"/>
<stop offset="1" stop-color="#FABB61"/>
</linearGradient>
<linearGradient id="paint3_linear_220_1870" x1="113.697" y1="2.15137" x2="113.697" y2="23.6035" gradientUnits="userSpaceOnUse">
<stop stop-color="#FDD974"/>
<stop offset="1" stop-color="#FABB61"/>
</linearGradient>
<linearGradient id="paint4_linear_220_1870" x1="146.89" y1="2.15137" x2="146.89" y2="23.6035" gradientUnits="userSpaceOnUse">
<stop stop-color="#FDD974"/>
<stop offset="1" stop-color="#FABB61"/>
</linearGradient>
<clipPath id="clip0_220_1870">
<rect width="161" height="27.15" fill="white" transform="translate(0 0.339844)"/>
</clipPath>
<clipPath id="clip1_220_1870">
<rect width="161" height="27.15" fill="white" transform="translate(0 0.339844)"/>
</clipPath>
</defs>
</svg>
