<svg width="100%" height="100%" style="overflow:visible;" preserveAspectRatio="none" viewBox="0 0 87 66" fill="none" xmlns="http://www.w3.org/2000/svg">
<path d="M52.7197 63.9733H33.5787C30.6477 63.9733 28.2627 61.5883 28.2627 58.6583V7.34334C28.2627 4.41234 30.6477 2.02734 33.5787 2.02734H52.7197C55.6507 2.02734 58.0347 4.41234 58.0347 7.34334V58.6573C58.0347 61.5883 55.6497 63.9733 52.7197 63.9733ZM33.5787 2.69934C31.0177 2.69934 28.9347 4.78234 28.9347 7.34334V58.6573C28.9347 61.2183 31.0177 63.3013 33.5787 63.3013H52.7197C55.2807 63.3013 57.3637 61.2183 57.3637 58.6573V7.34334C57.3637 4.78234 55.2807 2.69934 52.7197 2.69934H33.5787Z" fill="black"/>
<path d="M42.9996 62.0327C44.2329 62.0327 45.2326 61.0302 45.2326 59.7937C45.2326 58.5571 44.2329 57.5547 42.9996 57.5547C41.7664 57.5547 40.7666 58.5571 40.7666 59.7937C40.7666 61.0302 41.7664 62.0327 42.9996 62.0327Z" fill="black"/>
<path d="M38.3848 7.05664C38.937 7.05664 39.3848 6.60892 39.3848 6.05664C39.3848 5.50436 38.937 5.05664 38.3848 5.05664C37.8325 5.05664 37.3848 5.50436 37.3848 6.05664C37.3848 6.60892 37.8325 7.05664 38.3848 7.05664Z" fill="black"/>
<path d="M41.2666 5.9082H45.0306C45.3066 5.9082 45.5306 6.1322 45.5306 6.4082C45.5306 6.6842 45.3066 6.9082 45.0306 6.9082H41.2666C40.9906 6.9082 40.7666 6.6842 40.7666 6.4082C40.7666 6.1322 40.9906 5.9082 41.2666 5.9082Z" fill="black"/>
<path d="M43.2227 5.04199C43.7749 5.04199 44.2227 4.59427 44.2227 4.04199C44.2227 3.48971 43.7749 3.04199 43.2227 3.04199C42.6704 3.04199 42.2227 3.48971 42.2227 4.04199C42.2227 4.59427 42.6704 5.04199 43.2227 5.04199Z" fill="black"/>
<path d="M28.6133 9.93848C28.8893 9.93848 29.1133 10.1625 29.1133 10.4385V11.8265C29.1133 12.1025 28.8893 12.3265 28.6133 12.3265C28.3373 12.3265 28.1133 12.1025 28.1133 11.8265V10.4385C28.1133 10.1625 28.3373 9.93848 28.6133 9.93848Z" fill="black"/>
<path d="M28.6133 15.3115C28.8893 15.3115 29.1133 15.5355 29.1133 15.8115V19.4385C29.1133 19.7145 28.8893 19.9385 28.6133 19.9385C28.3373 19.9385 28.1133 19.7145 28.1133 19.4385V15.8115C28.1133 15.5355 28.3373 15.3115 28.6133 15.3115Z" fill="black"/>
<path d="M28.6133 20.835C28.8893 20.835 29.1133 21.059 29.1133 21.335V24.962C29.1133 25.238 28.8893 25.462 28.6133 25.462C28.3373 25.462 28.1133 25.238 28.1133 24.962V21.335C28.1133 21.059 28.3373 20.835 28.6133 20.835Z" fill="black"/>
<path d="M58.3867 15.3115C58.6627 15.3115 58.8867 15.5355 58.8867 15.8115V19.4385C58.8867 19.7145 58.6627 19.9385 58.3867 19.9385C58.1107 19.9385 57.8867 19.7145 57.8867 19.4385V15.8115C57.8867 15.5355 58.1107 15.3115 58.3867 15.3115Z" fill="black"/>
<path d="M30.3449 9.93848H56.0999C56.2639 9.93848 56.3969 10.0715 56.3969 10.2355V56.3625C56.3969 56.5265 56.2639 56.6595 56.0999 56.6595H30.3449C30.1809 56.6595 30.0479 56.5265 30.0479 56.3625V10.2355C30.0489 10.0715 30.1809 9.93848 30.3449 9.93848Z" fill="black"/>
</svg>
