<svg width="100%" height="100%" style="overflow:visible;" preserveAspectRatio="none" viewBox="0 0 87 66" fill="none" xmlns="http://www.w3.org/2000/svg">
<path d="M86.157 58.0612H79.646C79.794 57.7152 79.878 57.3342 79.878 56.9342V8.57422C79.879 7.80622 79.58 7.08522 79.038 6.54222C78.496 5.99922 77.774 5.70022 77.007 5.69922L8.912 5.70122C7.329 5.70122 6.04 6.98922 6.039 8.57222V56.9322C6.039 57.3272 6.121 57.7082 6.271 58.0612H0.842H0.125V58.2362C0.125 59.5222 1.697 60.5292 3.703 60.5292H83.298C85.304 60.5292 86.875 59.5222 86.875 58.2362V58.0602L86.157 58.0612ZM7.018 56.9332V8.57322C7.019 7.52922 7.869 6.68022 8.912 6.67822H77.008C78.052 6.67822 78.901 7.52922 78.9 8.57422V56.9342C78.9 57.3582 78.755 57.7452 78.519 58.0612H7.399C7.155 57.7362 7.018 57.3462 7.018 56.9332Z" fill="black"/>
<path d="M76.5051 10.916H10.2781C9.73109 10.915 9.28809 11.358 9.28809 11.905V53.602C9.28809 54.149 9.73109 54.592 10.2781 54.592H76.5061H76.5071C77.0541 54.591 77.4971 54.148 77.4961 53.601V11.906C77.4951 11.359 77.0521 10.916 76.5051 10.916Z" fill="black"/>
<path d="M43.3906 10.0684C43.9429 10.0684 44.3906 9.62064 44.3906 9.06836C44.3906 8.51607 43.9429 8.06836 43.3906 8.06836C42.8383 8.06836 42.3906 8.51607 42.3906 9.06836C42.3906 9.62064 42.8383 10.0684 43.3906 10.0684Z" fill="black"/>
</svg>
