<svg width="100%" height="100%" style="overflow:visible;" preserveAspectRatio="none" viewBox="0 0 87 66" fill="none" xmlns="http://www.w3.org/2000/svg">
<path d="M50.9004 45.1094C50.5404 45.5794 50.2504 46.2094 50.0504 46.9894C49.8704 47.6594 49.7004 49.1794 49.5504 51.5094C49.5004 52.1994 48.9304 52.7394 48.2404 52.7394H39.2504C38.5704 52.7394 37.9904 52.2094 37.9404 51.5394C37.7204 49.0294 37.5604 47.4994 37.4704 46.9894C37.3504 46.3994 37.0604 45.7694 36.6104 45.1094H36.7504C37.1404 45.2294 37.5604 45.2994 37.9904 45.2994H49.4704C49.9004 45.2994 50.3204 45.2294 50.7104 45.1094H50.9004Z" fill="black"/>
<path d="M50.9004 21.67H50.7104C50.3204 21.55 49.9004 21.48 49.4704 21.48H37.9904C37.5604 21.48 37.1404 21.55 36.7504 21.67H36.6104C36.9704 21.2 37.2604 20.57 37.4704 19.79C37.6404 19.12 37.8104 17.6 37.9604 15.27C38.0104 14.58 38.5804 14.04 39.2804 14.04H48.2604C48.9404 14.04 49.5204 14.57 49.5704 15.24C49.7904 17.74 49.9504 19.27 50.0404 19.79C50.1604 20.38 50.4504 21.01 50.9004 21.67Z" fill="black"/>
<path d="M52.21 25.5792V41.0992C52.21 42.5492 51.04 43.7292 49.59 43.7292H37.87C36.43 43.7292 35.25 42.5492 35.25 41.0992V25.5792C35.25 24.1292 36.43 22.9492 37.87 22.9492H49.59C51.04 22.9492 52.21 24.1292 52.21 25.5792Z" fill="black"/>
</svg>
