<svg width="100%" height="100%" style="overflow:visible;" preserveAspectRatio="none" viewBox="0 0 407.65 206.48" fill="none" xmlns="http://www.w3.org/2000/svg">
<g filter="url(#filter0_dd_233_337)">
<path d="M240.464 0.0854492H48.2097C21.6791 0.0854492 0.171875 19.597 0.171875 43.6657C0.171875 67.7345 21.6791 87.246 48.2097 87.246H240.464C266.994 87.246 288.501 67.7345 288.501 43.6657C288.501 19.597 266.994 0.0854492 240.464 0.0854492Z" fill="#424242"/>
<path d="M57.3418 28.2983L62.4885 40.9172L76.3983 45.5863L62.4885 50.2559L57.3418 62.8746L52.1945 50.2559L38.2852 45.5863L52.1945 40.9172L57.3418 28.2983Z" fill="#FFC0EA" stroke="#FFC0EA" stroke-width="2.98299" stroke-linecap="round" stroke-linejoin="round"/>
<path d="M75.3368 24.4565L76.7665 27.9617L80.6301 29.2587L76.7665 30.5558L75.3368 34.061L73.9071 30.5558L70.043 29.2587L73.9071 27.9617L75.3368 24.4565Z" fill="#FFC0EA" stroke="#FFC0EA" stroke-width="2.98299" stroke-linecap="round" stroke-linejoin="round"/>
<path d="M111.285 62.8987H106.074V25.0015H131.433V29.2559H111.285V42.2822H129.783V46.4842H111.285V62.8987ZM144.518 59.4844C146.892 59.4844 148.88 58.8188 150.482 57.4882C152.103 56.1403 152.913 54.4859 152.913 52.525V50.2923L144.866 50.7391C142.839 50.8613 141.266 51.308 140.147 52.0782C139.047 52.8487 138.497 53.8816 138.497 55.1774C138.497 56.4729 139.047 57.5146 140.147 58.3024C141.247 59.0905 142.704 59.4844 144.518 59.4844ZM143.389 63.3711C140.398 63.3711 137.976 62.6182 136.123 61.1128C134.29 59.607 133.373 57.6284 133.373 55.1774C133.373 52.8311 134.319 50.9578 136.21 49.5571C138.121 48.1562 140.813 47.3685 144.287 47.1934L152.913 46.7471V44.4623C152.913 42.7987 152.334 41.4944 151.176 40.5489C150.018 39.6037 148.397 39.1308 146.313 39.1308C144.403 39.1308 142.849 39.5159 141.652 40.2863C140.456 41.0393 139.693 42.0987 139.365 43.4642H134.502C134.676 41.0305 135.834 39.0347 137.976 37.4764C140.137 35.9005 142.955 35.1127 146.429 35.1127C149.96 35.1127 152.759 35.9181 154.824 37.5289C156.908 39.1396 157.951 41.3017 157.951 44.0155V62.8987H153.174V58.1974H153.058C152.151 59.7557 150.819 61.0074 149.063 61.953C147.307 62.8987 145.416 63.3711 143.389 63.3711ZM163.827 43.1229C163.827 40.7768 164.869 38.8595 166.954 37.3714C169.057 35.8656 171.759 35.1127 175.059 35.1127C178.166 35.1127 180.753 35.8656 182.817 37.3714C184.883 38.8768 185.973 40.7852 186.089 43.0964H181.283C181.109 41.7657 180.453 40.7239 179.314 39.9711C178.195 39.2186 176.719 38.8419 174.885 38.8419C173.052 38.8419 171.576 39.2186 170.456 39.9711C169.337 40.7067 168.777 41.6783 168.777 42.8864C168.777 44.7424 170.447 46.0555 173.785 46.826L178.446 47.8501C181.476 48.5505 183.609 49.4608 184.844 50.5812C186.098 51.6843 186.725 53.2426 186.725 55.256C186.725 57.6373 185.606 59.5894 183.367 61.1128C181.129 62.6182 178.253 63.3711 174.741 63.3711C171.46 63.3711 168.748 62.6358 166.606 61.1653C164.483 59.6767 163.287 57.7158 163.017 55.2824H168.054C168.613 58.1886 170.948 59.6419 175.059 59.6419C177.085 59.6419 178.687 59.2829 179.865 58.5653C181.061 57.83 181.659 56.8407 181.659 55.5974C181.659 54.6169 181.302 53.838 180.588 53.2602C179.893 52.6824 178.707 52.1919 177.028 51.7893L171.73 50.5552C166.462 49.3295 163.827 46.852 163.827 43.1229ZM193.586 28.9935H198.623V35.5856H204.471V39.3408H198.623V55.5713C198.623 56.8142 198.922 57.7334 199.521 58.3288C200.119 58.9066 201.065 59.1955 202.358 59.1955C203.168 59.1955 203.863 59.1518 204.442 59.0641V62.8987C203.786 63.0385 202.725 63.1086 201.258 63.1086C198.498 63.1086 196.529 62.5484 195.352 61.4277C194.175 60.3075 193.586 58.4338 193.586 55.8077V39.3408H189.099V35.5856H193.586V28.9935ZM221.058 39.0783C218.723 39.0783 216.784 39.8136 215.24 41.2845C213.715 42.7374 212.876 44.611 212.721 46.9045H229.078C229.019 44.5933 228.257 42.7113 226.79 41.2581C225.324 39.8048 223.413 39.0783 221.058 39.0783ZM228.961 55.072H233.911C233.467 57.4882 232.078 59.4756 229.743 61.0339C227.428 62.5921 224.638 63.3711 221.376 63.3711C217.073 63.3711 213.686 62.1105 211.216 59.5894C208.746 57.0683 207.51 53.6541 207.51 49.3471C207.51 45.075 208.746 41.6347 211.216 39.0258C213.706 36.4169 217.016 35.1127 221.145 35.1127C225.198 35.1127 228.402 36.3469 230.756 38.8159C233.111 41.2845 234.288 44.5933 234.288 48.7428V50.4762H212.693V50.7391C212.693 53.3652 213.484 55.4663 215.066 57.0418C216.649 58.6177 218.791 59.4055 221.492 59.4055C223.384 59.4055 224.996 59.0116 226.327 58.2238C227.659 57.4357 228.537 56.3855 228.961 55.072ZM239.383 62.8987V35.5856H244.131V40.05H244.246C244.748 38.527 245.646 37.3273 246.938 36.4523C248.251 35.5591 249.785 35.1127 251.541 35.1127C251.946 35.1127 252.622 35.1741 253.568 35.2967V39.735C253.028 39.56 252.13 39.4722 250.876 39.4722C248.927 39.4722 247.364 40.0589 246.186 41.232C245.008 42.4048 244.42 43.9542 244.42 45.8803V62.8987H239.383Z" fill="#FFC0EA"/>
</g>
<defs>
<filter id="filter0_dd_233_337" x="-59.4879" y="-48.3881" width="407.65" height="206.48" filterUnits="userSpaceOnUse" color-interpolation-filters="sRGB">
<feFlood flood-opacity="0" result="BackgroundImageFix"/>
<feColorMatrix in="SourceAlpha" type="matrix" values="0 0 0 0 0 0 0 0 0 0 0 0 0 0 0 0 0 0 127 0" result="hardAlpha"/>
<feOffset dy="11.1862"/>
<feGaussianBlur stdDeviation="29.8299"/>
<feColorMatrix type="matrix" values="0 0 0 0 0 0 0 0 0 0 0 0 0 0 0 0 0 0 0.08 0"/>
<feBlend mode="normal" in2="BackgroundImageFix" result="effect1_dropShadow_233_337"/>
<feColorMatrix in="SourceAlpha" type="matrix" values="0 0 0 0 0 0 0 0 0 0 0 0 0 0 0 0 0 0 127 0" result="hardAlpha"/>
<feOffset dy="7.45745"/>
<feGaussianBlur stdDeviation="3.72873"/>
<feColorMatrix type="matrix" values="0 0 0 0 0 0 0 0 0 0 0 0 0 0 0 0 0 0 0.03 0"/>
<feBlend mode="normal" in2="effect1_dropShadow_233_337" result="effect2_dropShadow_233_337"/>
<feBlend mode="normal" in="SourceGraphic" in2="effect2_dropShadow_233_337" result="shape"/>
</filter>
</defs>
</svg>
