<svg width="100%" height="100%" style="overflow:visible;" preserveAspectRatio="none" viewBox="0 0 297.16 206.48" fill="none" xmlns="http://www.w3.org/2000/svg">
<g filter="url(#filter0_dd_233_345)">
<path d="M253.462 0.862793H48.8406C22.31 0.862793 0.802734 20.3743 0.802734 44.4431C0.802734 68.5119 22.31 88.0234 48.8406 88.0234H253.462C279.992 88.0234 301.499 68.5119 301.499 44.4431C301.499 20.3743 279.992 0.862793 253.462 0.862793Z" fill="#424242"/>
<path d="M57.9725 29.0757L63.1194 41.6944L77.029 46.3641L63.1194 51.0332L57.9725 63.652L52.8255 51.0332L38.916 46.3641L52.8255 41.6944L57.9725 29.0757Z" fill="#FFDD7D" stroke="#FFDD7D" stroke-width="2.98299" stroke-linecap="round" stroke-linejoin="round"/>
<path d="M75.9673 25.2339L77.3969 28.7391L81.2608 30.0361L77.3969 31.3331L75.9673 34.8383L74.5377 31.3331L70.6738 30.0361L74.5377 28.7391L75.9673 25.2339Z" fill="#FFDD7D" stroke="#FFDD7D" stroke-width="2.98299" stroke-linecap="round" stroke-linejoin="round"/>
<path d="M123.715 64.3066C117.945 64.3066 113.361 62.5468 109.964 59.0276C106.587 55.4912 104.898 50.7198 104.898 44.7147C104.898 38.7618 106.606 34.0169 110.022 30.4804C113.438 26.926 118.003 25.1489 123.715 25.1489C128.27 25.1489 132.129 26.3045 135.295 28.6156C138.479 30.9092 140.399 33.9468 141.055 37.7289H135.787C135.111 35.2426 133.673 33.2552 131.473 31.767C129.273 30.2613 126.687 29.5088 123.715 29.5088C119.643 29.5088 116.381 30.8919 113.93 33.6579C111.48 36.4242 110.254 40.1101 110.254 44.7147C110.254 49.3719 111.47 53.0746 113.901 55.8238C116.333 58.5725 119.614 59.9468 123.744 59.9468C126.813 59.9468 129.399 59.3078 131.502 58.0295C133.606 56.7517 135.034 54.9571 135.787 52.6459H141.055C140.09 56.3927 138.112 59.2728 135.121 61.2863C132.129 63.2998 128.327 64.3066 123.715 64.3066ZM146.44 63.6759V36.3633H151.187V40.8277H151.303C151.805 39.3044 152.702 38.1051 153.995 37.2296C155.308 36.3369 156.842 35.8905 158.598 35.8905C159.003 35.8905 159.679 35.9518 160.625 36.0744V40.5128C160.084 40.3377 159.187 40.2499 157.932 40.2499C155.983 40.2499 154.42 40.8366 153.243 42.0097C152.065 43.1825 151.477 44.732 151.477 46.658V63.6759H146.44ZM175.36 39.8561C173.024 39.8561 171.085 40.5913 169.541 42.0622C168.016 43.5151 167.177 45.3887 167.022 47.6822H183.378C183.32 45.3711 182.558 43.4891 181.091 42.0358C179.624 40.5825 177.714 39.8561 175.36 39.8561ZM183.262 55.8497H188.213C187.769 58.2659 186.379 60.2533 184.044 61.8116C181.728 63.3698 178.939 64.1488 175.678 64.1488C171.374 64.1488 167.987 62.8883 165.517 60.3671C163.047 57.846 161.811 54.4318 161.811 50.1248C161.811 45.8527 163.047 42.4125 165.517 39.8036C168.006 37.1948 171.316 35.8905 175.446 35.8905C179.499 35.8905 182.703 37.1246 185.057 39.5932C187.412 42.0622 188.589 45.3711 188.589 49.5206V51.254H166.993V51.5168C166.993 54.1429 167.785 56.2436 169.367 57.8195C170.95 59.3954 173.092 60.1832 175.794 60.1832C177.685 60.1832 179.297 59.7893 180.628 59.0016C181.96 58.2134 182.838 57.1632 183.262 55.8497ZM203.613 60.2621C205.987 60.2621 207.975 59.5966 209.577 58.2659C211.198 56.918 212.009 55.2632 212.009 53.3027V51.07L203.961 51.5168C201.934 51.639 200.361 52.0857 199.242 52.8559C198.142 53.6264 197.592 54.6594 197.592 55.9547C197.592 57.2506 198.142 58.2924 199.242 59.0802C200.342 59.8683 201.799 60.2621 203.613 60.2621ZM202.485 64.1488C199.493 64.1488 197.071 63.3959 195.218 61.8901C193.385 60.3848 192.468 58.4062 192.468 55.9547C192.468 53.6088 193.414 51.7355 195.305 50.3348C197.216 48.934 199.908 48.1463 203.382 47.9711L212.009 47.5248V45.2397C212.009 43.5764 211.43 42.2722 210.272 41.3266C209.114 40.3814 207.493 39.9085 205.408 39.9085C203.498 39.9085 201.944 40.2936 200.748 41.0642C199.551 41.817 198.789 42.876 198.461 44.2419H193.597C193.771 41.8082 194.929 39.8124 197.071 38.2541C199.233 36.6782 202.05 35.8905 205.524 35.8905C209.056 35.8905 211.854 36.6959 213.919 38.3066C216.004 39.9174 217.045 42.0795 217.045 44.7932V63.6759H212.269V58.9752H212.153C211.246 60.5334 209.915 61.7852 208.158 62.7307C206.402 63.6759 204.511 64.1488 202.485 64.1488ZM225.064 29.7712H230.102V36.3633H235.95V40.1185H230.102V56.349C230.102 57.5919 230.401 58.5112 230.999 59.1065C231.598 59.6843 232.543 59.9732 233.836 59.9732C234.646 59.9732 235.341 59.9291 235.92 59.8419V63.6759C235.264 63.8162 234.203 63.8863 232.736 63.8863C229.976 63.8863 228.008 63.3262 226.83 62.2055C225.653 61.0848 225.064 59.2115 225.064 56.5854V40.1185H220.578V36.3633H225.064V29.7712ZM252.537 39.8561C250.202 39.8561 248.262 40.5913 246.719 42.0622C245.193 43.5151 244.354 45.3887 244.199 47.6822H260.555C260.497 45.3711 259.735 43.4891 258.269 42.0358C256.801 40.5825 254.891 39.8561 252.537 39.8561ZM260.44 55.8497H265.39C264.946 58.2659 263.557 60.2533 261.222 61.8116C258.906 63.3698 256.117 64.1488 252.855 64.1488C248.552 64.1488 245.164 62.8883 242.694 60.3671C240.223 57.846 238.989 54.4318 238.989 50.1248C238.989 45.8527 240.223 42.4125 242.694 39.8036C245.184 37.1948 248.494 35.8905 252.623 35.8905C256.676 35.8905 259.88 37.1246 262.235 39.5932C264.589 42.0622 265.767 45.3711 265.767 49.5206V51.254H244.17V51.5168C244.17 54.1429 244.962 56.2436 246.545 57.8195C248.127 59.3954 250.269 60.1832 252.971 60.1832C254.863 60.1832 256.473 59.7893 257.805 59.0016C259.136 58.2134 260.015 57.1632 260.44 55.8497Z" fill="#FFDD7D"/>
</g>
<defs>
<filter id="filter0_dd_233_345" x="-58.857" y="-47.6108" width="420.017" height="206.48" filterUnits="userSpaceOnUse" color-interpolation-filters="sRGB">
<feFlood flood-opacity="0" result="BackgroundImageFix"/>
<feColorMatrix in="SourceAlpha" type="matrix" values="0 0 0 0 0 0 0 0 0 0 0 0 0 0 0 0 0 0 127 0" result="hardAlpha"/>
<feOffset dy="11.1862"/>
<feGaussianBlur stdDeviation="29.8299"/>
<feColorMatrix type="matrix" values="0 0 0 0 0 0 0 0 0 0 0 0 0 0 0 0 0 0 0.08 0"/>
<feBlend mode="normal" in2="BackgroundImageFix" result="effect1_dropShadow_233_345"/>
<feColorMatrix in="SourceAlpha" type="matrix" values="0 0 0 0 0 0 0 0 0 0 0 0 0 0 0 0 0 0 127 0" result="hardAlpha"/>
<feOffset dy="7.45745"/>
<feGaussianBlur stdDeviation="3.72873"/>
<feColorMatrix type="matrix" values="0 0 0 0 0 0 0 0 0 0 0 0 0 0 0 0 0 0 0.03 0"/>
<feBlend mode="normal" in2="effect1_dropShadow_233_345" result="effect2_dropShadow_233_345"/>
<feBlend mode="normal" in="SourceGraphic" in2="effect2_dropShadow_233_345" result="shape"/>
</filter>
</defs>
</svg>
