<svg width="100%" height="100%" style="overflow:visible;" preserveAspectRatio="none" viewBox="0 0 168.23 206.48" fill="none" xmlns="http://www.w3.org/2000/svg">
<g filter="url(#filter0_dd_233_334)">
<path d="M352.533 0.0854492H48.0965C21.5658 0.0854492 0.0585938 19.597 0.0585938 43.6657C0.0585938 67.7345 21.5658 87.246 48.0965 87.246H352.533C379.065 87.246 400.572 67.7345 400.572 43.6657C400.572 19.597 379.065 0.0854492 352.533 0.0854492Z" fill="#424242"/>
<path d="M105.951 25.0015H120.86C124.777 25.0015 127.981 26.1398 130.471 28.4157C132.979 30.6744 134.234 33.5894 134.234 37.161C134.234 40.7504 132.979 43.683 130.471 45.9593C127.962 48.2352 124.739 49.3732 120.802 49.3732H111.162V62.8987H105.951V25.0015ZM111.162 29.2035V45.1712H119.499C122.471 45.1712 124.777 44.4707 126.418 43.0703C128.058 41.652 128.879 39.6822 128.879 37.161C128.879 34.6399 128.058 32.6878 126.418 31.3046C124.797 29.9038 122.49 29.2035 119.499 29.2035H111.162ZM139.445 62.8987V35.5856H144.192V40.05H144.308C144.81 38.527 145.707 37.3273 147 36.4523C148.313 35.5591 149.847 35.1127 151.603 35.1127C152.008 35.1127 152.684 35.1741 153.629 35.2967V39.735C153.089 39.56 152.191 39.4722 150.937 39.4722C148.988 39.4722 147.425 40.0589 146.248 41.232C145.071 42.4048 144.482 43.9542 144.482 45.8803V62.8987H139.445ZM168.769 63.3711C164.563 63.3711 161.185 62.1017 158.638 59.5629C156.09 57.007 154.816 53.5667 154.816 49.2421C154.816 44.9175 156.09 41.4857 158.638 38.9469C161.185 36.391 164.563 35.1127 168.769 35.1127C172.957 35.1127 176.325 36.391 178.873 38.9469C181.42 41.4857 182.694 44.9175 182.694 49.2421C182.694 53.5491 181.42 56.9805 178.873 59.5369C176.325 62.0932 172.957 63.3711 168.769 63.3711ZM162.314 56.6744C163.916 58.4603 166.068 59.353 168.769 59.353C171.472 59.353 173.614 58.4686 175.196 56.7005C176.779 54.9146 177.57 52.4283 177.57 49.2421C177.57 46.0555 176.779 43.5781 175.196 41.8098C173.614 40.0239 171.472 39.1308 168.769 39.1308C166.068 39.1308 163.916 40.0239 162.314 41.8098C160.732 43.5957 159.94 46.0731 159.94 49.2421C159.94 52.4111 160.732 54.8885 162.314 56.6744ZM199.195 63.3711C195.335 63.3711 192.218 62.0845 189.844 59.5104C187.49 56.9368 186.312 53.5138 186.312 49.2421C186.312 44.9872 187.49 41.5734 189.844 38.9994C192.199 36.4082 195.277 35.1127 199.079 35.1127C201.202 35.1127 203.103 35.5503 204.782 36.4258C206.461 37.3013 207.754 38.5006 208.661 40.0239H208.776V25.0015H213.814V62.8987H209.008V58.2764H208.921C207.937 59.8695 206.606 61.1212 204.927 62.0319C203.248 62.9247 201.337 63.3711 199.195 63.3711ZM200.15 39.1308C197.487 39.1308 195.374 40.05 193.81 41.8883C192.247 43.7094 191.465 46.1605 191.465 49.2421C191.465 52.341 192.247 54.8009 193.81 56.6216C195.374 58.4427 197.487 59.353 200.15 59.353C202.755 59.353 204.849 58.4338 206.432 56.5955C208.014 54.7395 208.806 52.2885 208.806 49.2421C208.806 46.1953 208.005 43.7531 206.403 41.9148C204.82 40.0589 202.736 39.1308 200.15 39.1308ZM245.339 35.5856V62.8987H240.563V58.4603H240.447C238.574 61.7343 235.39 63.3711 230.893 63.3711C227.632 63.3711 225.075 62.4784 223.222 60.6925C221.389 58.889 220.472 56.4292 220.472 53.3126V35.5856H225.509V52.4985C225.509 57.0507 227.825 59.3269 232.457 59.3269C234.888 59.3269 236.799 58.6353 238.188 57.2522C239.597 55.8514 240.302 53.9778 240.302 51.6318V35.5856H245.339ZM276.893 44.5409H271.972C271.586 42.9654 270.726 41.6696 269.395 40.6542C268.082 39.6385 266.375 39.1308 264.271 39.1308C261.646 39.1308 259.534 40.05 257.931 41.8883C256.33 43.7094 255.529 46.1605 255.529 49.2421C255.529 52.3759 256.33 54.8444 257.931 56.6479C259.553 58.4514 261.685 59.353 264.329 59.353C266.356 59.353 268.024 58.8978 269.337 57.9875C270.668 57.0594 271.556 55.7637 272.001 54.1004H276.951C276.565 56.8318 275.204 59.0641 272.869 60.7975C270.554 62.5132 267.697 63.3711 264.3 63.3711C260.093 63.3711 256.725 62.1105 254.197 59.5894C251.669 57.0507 250.405 53.6015 250.405 49.2421C250.405 44.9524 251.669 41.5293 254.197 38.9734C256.725 36.3993 260.073 35.1127 264.242 35.1127C267.832 35.1127 270.746 36.0319 272.985 37.8702C275.243 39.7086 276.546 41.932 276.893 44.5409ZM283.203 28.9935H288.241V35.5856H294.088V39.3408H288.241V55.5713C288.241 56.8142 288.54 57.7334 289.138 58.3288C289.737 58.9066 290.682 59.1955 291.975 59.1955C292.785 59.1955 293.48 59.1518 294.06 59.0641V62.8987C293.403 63.0385 292.342 63.1086 290.875 63.1086C288.115 63.1086 286.147 62.5484 284.969 61.4277C283.793 60.3075 283.203 58.4338 283.203 55.8077V39.3408H278.717V35.5856H283.203V28.9935ZM299.734 62.8987V35.5856H304.77V62.8987H299.734ZM302.251 30.9893C301.403 30.9893 300.669 30.7092 300.052 30.1491C299.434 29.5889 299.126 28.9234 299.126 28.1533C299.126 27.3651 299.434 26.7 300.052 26.157C300.669 25.5969 301.403 25.3168 302.251 25.3168C303.12 25.3168 303.863 25.5969 304.481 26.157C305.099 26.7 305.408 27.3651 305.408 28.1533C305.408 28.9234 305.099 29.5889 304.481 30.1491C303.863 30.7092 303.12 30.9893 302.251 30.9893ZM336.267 35.5856L325.209 62.8987H320.055L308.968 35.5856H314.266L322.574 58.0399H322.69L331.027 35.5856H336.267ZM351.436 39.0783C349.101 39.0783 347.161 39.8136 345.618 41.2845C344.092 42.7374 343.253 44.611 343.099 46.9045H359.455C359.397 44.5933 358.634 42.7113 357.168 41.2581C355.7 39.8048 353.79 39.0783 351.436 39.0783ZM359.339 55.072H364.289C363.846 57.4882 362.456 59.4756 360.121 61.0339C357.805 62.5921 355.016 63.3711 351.754 63.3711C347.451 63.3711 344.064 62.1105 341.594 59.5894C339.122 57.0683 337.888 53.6541 337.888 49.3471C337.888 45.075 339.122 41.6347 341.594 39.0258C344.083 36.4169 347.393 35.1127 351.523 35.1127C355.576 35.1127 358.779 36.3469 361.134 38.8159C363.488 41.2845 364.666 44.5933 364.666 48.7428V50.4762H343.07V50.7391C343.07 53.3652 343.861 55.4663 345.443 57.0418C347.026 58.6177 349.168 59.4055 351.87 59.4055C353.761 59.4055 355.372 59.0116 356.704 58.2238C358.035 57.4357 358.914 56.3855 359.339 55.072Z" fill="#ABA3FE"/>
</g>
<defs>
<filter id="filter0_dd_233_334" x="-59.6012" y="-48.3881" width="519.833" height="206.48" filterUnits="userSpaceOnUse" color-interpolation-filters="sRGB">
<feFlood flood-opacity="0" result="BackgroundImageFix"/>
<feColorMatrix in="SourceAlpha" type="matrix" values="0 0 0 0 0 0 0 0 0 0 0 0 0 0 0 0 0 0 127 0" result="hardAlpha"/>
<feOffset dy="11.1862"/>
<feGaussianBlur stdDeviation="29.8299"/>
<feColorMatrix type="matrix" values="0 0 0 0 0 0 0 0 0 0 0 0 0 0 0 0 0 0 0.08 0"/>
<feBlend mode="normal" in2="BackgroundImageFix" result="effect1_dropShadow_233_334"/>
<feColorMatrix in="SourceAlpha" type="matrix" values="0 0 0 0 0 0 0 0 0 0 0 0 0 0 0 0 0 0 127 0" result="hardAlpha"/>
<feOffset dy="7.45745"/>
<feGaussianBlur stdDeviation="3.72873"/>
<feColorMatrix type="matrix" values="0 0 0 0 0 0 0 0 0 0 0 0 0 0 0 0 0 0 0.03 0"/>
<feBlend mode="normal" in2="effect1_dropShadow_233_334" result="effect2_dropShadow_233_334"/>
<feBlend mode="normal" in="SourceGraphic" in2="effect2_dropShadow_233_334" result="shape"/>
</filter>
</defs>
</svg>
