<svg width="100%" height="100%" style="overflow:visible;" preserveAspectRatio="none" viewBox="0 0 161 27.15" fill="none" xmlns="http://www.w3.org/2000/svg">
<g clip-path="url(#clip0_233_484)">
<g clip-path="url(#clip1_233_484)">
<path d="M24.6151 9.3654L17.8807 8.38668L14.8704 2.28365C14.7881 2.11655 14.6528 1.98128 14.4857 1.89906C14.0666 1.69218 13.5574 1.86458 13.3479 2.28365L10.3374 8.38668L3.60313 9.3654C3.41746 9.39192 3.24771 9.47945 3.11775 9.61207C2.96062 9.77356 2.87404 9.99082 2.87703 10.2162C2.88002 10.4414 2.97232 10.6563 3.13366 10.8136L8.00601 15.5639L6.85489 22.2717C6.8279 22.4277 6.84516 22.5882 6.90473 22.7349C6.9643 22.8816 7.0638 23.0087 7.19192 23.1018C7.32005 23.1949 7.47168 23.2501 7.62964 23.2614C7.78759 23.2726 7.94554 23.2395 8.08558 23.1655L14.1091 19.9987L20.1326 23.1655C20.297 23.253 20.488 23.2822 20.671 23.2504C21.1326 23.1708 21.4428 22.7332 21.3632 22.2717L20.2121 15.5639L25.0845 10.8136C25.2171 10.6836 25.3046 10.5139 25.3312 10.3282C25.4028 9.86405 25.0792 9.43436 24.6151 9.3654Z" fill="#9B07B7"/>
<path d="M24.6151 9.3654L17.8807 8.38668L14.8704 2.28365C14.7881 2.11655 14.6528 1.98128 14.4857 1.89906C14.0666 1.69218 13.5574 1.86458 13.3479 2.28365L10.3374 8.38668L3.60313 9.3654C3.41746 9.39192 3.24771 9.47945 3.11775 9.61207C2.96062 9.77356 2.87404 9.99082 2.87703 10.2162C2.88002 10.4414 2.97232 10.6563 3.13366 10.8136L8.00601 15.5639L6.85489 22.2717C6.8279 22.4277 6.84516 22.5882 6.90473 22.7349C6.9643 22.8816 7.0638 23.0087 7.19192 23.1018C7.32005 23.1949 7.47168 23.2501 7.62964 23.2614C7.78759 23.2726 7.94554 23.2395 8.08558 23.1655L14.1091 19.9987L20.1326 23.1655C20.297 23.253 20.488 23.2822 20.671 23.2504C21.1326 23.1708 21.4428 22.7332 21.3632 22.2717L20.2121 15.5639L25.0845 10.8136C25.2171 10.6836 25.3046 10.5139 25.3312 10.3282C25.4028 9.86405 25.0792 9.43436 24.6151 9.3654Z" fill="url(#paint0_linear_233_484)"/>
<path d="M57.8122 9.3654L51.078 8.38668L48.0675 2.28365C47.9853 2.11655 47.8501 1.98128 47.683 1.89906C47.2639 1.69218 46.7546 1.86458 46.5451 2.28365L43.5347 8.38668L36.8004 9.3654C36.6148 9.39192 36.445 9.47945 36.315 9.61207C36.1579 9.77356 36.0713 9.99082 36.0743 10.2162C36.0773 10.4414 36.1696 10.6563 36.3309 10.8136L41.2033 15.5639L40.0521 22.2717C40.0252 22.4277 40.0425 22.5882 40.102 22.7349C40.1616 22.8816 40.2611 23.0087 40.3892 23.1018C40.5174 23.1949 40.669 23.2501 40.8269 23.2614C40.9849 23.2726 41.1429 23.2395 41.2829 23.1655L47.3063 19.9987L53.3298 23.1655C53.4942 23.253 53.6852 23.2822 53.8682 23.2504C54.3297 23.1708 54.64 22.7332 54.5605 22.2717L53.4094 15.5639L58.2817 10.8136C58.4143 10.6836 58.5019 10.5139 58.5284 10.3282C58.6 9.86405 58.2764 9.43436 57.8122 9.3654Z" fill="#9B07B7"/>
<path d="M57.8122 9.3654L51.078 8.38668L48.0675 2.28365C47.9853 2.11655 47.8501 1.98128 47.683 1.89906C47.2639 1.69218 46.7546 1.86458 46.5451 2.28365L43.5347 8.38668L36.8004 9.3654C36.6148 9.39192 36.445 9.47945 36.315 9.61207C36.1579 9.77356 36.0713 9.99082 36.0743 10.2162C36.0773 10.4414 36.1696 10.6563 36.3309 10.8136L41.2033 15.5639L40.0521 22.2717C40.0252 22.4277 40.0425 22.5882 40.102 22.7349C40.1616 22.8816 40.2611 23.0087 40.3892 23.1018C40.5174 23.1949 40.669 23.2501 40.8269 23.2614C40.9849 23.2726 41.1429 23.2395 41.2829 23.1655L47.3063 19.9987L53.3298 23.1655C53.4942 23.253 53.6852 23.2822 53.8682 23.2504C54.3297 23.1708 54.64 22.7332 54.5605 22.2717L53.4094 15.5639L58.2817 10.8136C58.4143 10.6836 58.5019 10.5139 58.5284 10.3282C58.6 9.86405 58.2764 9.43436 57.8122 9.3654Z" fill="url(#paint1_linear_233_484)"/>
<path d="M91.0056 9.3654L84.2713 8.38668L81.2609 2.28365C81.1786 2.11655 81.0433 1.98128 80.8763 1.89906C80.4572 1.69218 79.948 1.86458 79.7385 2.28365L76.728 8.38668L69.9937 9.3654C69.808 9.39192 69.6383 9.47945 69.5084 9.61207C69.3513 9.77356 69.2646 9.99082 69.2677 10.2162C69.2706 10.4414 69.3629 10.6563 69.5243 10.8136L74.3966 15.5639L73.2455 22.2717C73.2185 22.4277 73.2357 22.5882 73.2953 22.7349C73.3549 22.8816 73.4544 23.0087 73.5825 23.1018C73.7106 23.1949 73.8623 23.2501 74.0203 23.2614C74.1782 23.2726 74.3361 23.2395 74.4761 23.1655L80.4996 19.9987L86.5231 23.1655C86.6876 23.253 86.8785 23.2822 87.0616 23.2504C87.5231 23.1708 87.8334 22.7332 87.7538 22.2717L86.6027 15.5639L91.4751 10.8136C91.6077 10.6836 91.6952 10.5139 91.7218 10.3282C91.7934 9.86405 91.4698 9.43436 91.0056 9.3654Z" fill="#9B07B7"/>
<path d="M91.0056 9.3654L84.2713 8.38668L81.2609 2.28365C81.1786 2.11655 81.0433 1.98128 80.8763 1.89906C80.4572 1.69218 79.948 1.86458 79.7385 2.28365L76.728 8.38668L69.9937 9.3654C69.808 9.39192 69.6383 9.47945 69.5084 9.61207C69.3513 9.77356 69.2646 9.99082 69.2677 10.2162C69.2706 10.4414 69.3629 10.6563 69.5243 10.8136L74.3966 15.5639L73.2455 22.2717C73.2185 22.4277 73.2357 22.5882 73.2953 22.7349C73.3549 22.8816 73.4544 23.0087 73.5825 23.1018C73.7106 23.1949 73.8623 23.2501 74.0203 23.2614C74.1782 23.2726 74.3361 23.2395 74.4761 23.1655L80.4996 19.9987L86.5231 23.1655C86.6876 23.253 86.8785 23.2822 87.0616 23.2504C87.5231 23.1708 87.8334 22.7332 87.7538 22.2717L86.6027 15.5639L91.4751 10.8136C91.6077 10.6836 91.6952 10.5139 91.7218 10.3282C91.7934 9.86405 91.4698 9.43436 91.0056 9.3654Z" fill="url(#paint2_linear_233_484)"/>
<path d="M124.203 9.3654L117.468 8.38668L114.459 2.28365C114.376 2.11655 114.24 1.98128 114.073 1.89906C113.655 1.69218 113.145 1.86458 112.936 2.28365L109.925 8.38668L103.191 9.3654C103.005 9.39192 102.836 9.47945 102.705 9.61207C102.548 9.77356 102.462 9.99082 102.465 10.2162C102.468 10.4414 102.56 10.6563 102.721 10.8136L107.594 15.5639L106.442 22.2717C106.416 22.4277 106.433 22.5882 106.493 22.7349C106.552 22.8816 106.652 23.0087 106.779 23.1018C106.908 23.1949 107.06 23.2501 107.218 23.2614C107.376 23.2726 107.534 23.2395 107.674 23.1655L113.697 19.9987L119.721 23.1655C119.885 23.253 120.076 23.2822 120.259 23.2504C120.72 23.1708 121.03 22.7332 120.951 22.2717L119.8 15.5639L124.673 10.8136C124.805 10.6836 124.892 10.5139 124.919 10.3282C124.991 9.86405 124.667 9.43436 124.203 9.3654Z" fill="#9B07B7"/>
<path d="M124.203 9.3654L117.468 8.38668L114.459 2.28365C114.376 2.11655 114.24 1.98128 114.073 1.89906C113.655 1.69218 113.145 1.86458 112.936 2.28365L109.925 8.38668L103.191 9.3654C103.005 9.39192 102.836 9.47945 102.705 9.61207C102.548 9.77356 102.462 9.99082 102.465 10.2162C102.468 10.4414 102.56 10.6563 102.721 10.8136L107.594 15.5639L106.442 22.2717C106.416 22.4277 106.433 22.5882 106.493 22.7349C106.552 22.8816 106.652 23.0087 106.779 23.1018C106.908 23.1949 107.06 23.2501 107.218 23.2614C107.376 23.2726 107.534 23.2395 107.674 23.1655L113.697 19.9987L119.721 23.1655C119.885 23.253 120.076 23.2822 120.259 23.2504C120.72 23.1708 121.03 22.7332 120.951 22.2717L119.8 15.5639L124.673 10.8136C124.805 10.6836 124.892 10.5139 124.919 10.3282C124.991 9.86405 124.667 9.43436 124.203 9.3654Z" fill="url(#paint3_linear_233_484)"/>
<path d="M157.396 9.3654L150.662 8.38668L147.652 2.28365C147.569 2.11655 147.434 1.98128 147.267 1.89906C146.848 1.69218 146.338 1.86458 146.129 2.28365L143.119 8.38668L136.385 9.3654C136.198 9.39192 136.029 9.47945 135.899 9.61207C135.742 9.77356 135.655 9.99082 135.658 10.2162C135.661 10.4414 135.754 10.6563 135.915 10.8136L140.787 15.5639L139.636 22.2717C139.61 22.4277 139.627 22.5882 139.686 22.7349C139.745 22.8816 139.845 23.0087 139.974 23.1018C140.101 23.1949 140.253 23.2501 140.411 23.2614C140.569 23.2726 140.727 23.2395 140.867 23.1655L146.89 19.9987L152.914 23.1655C153.078 23.253 153.269 23.2822 153.452 23.2504C153.914 23.1708 154.224 22.7332 154.144 22.2717L152.993 15.5639L157.866 10.8136C157.998 10.6836 158.086 10.5139 158.113 10.3282C158.184 9.86405 157.86 9.43436 157.396 9.3654Z" fill="#9B07B7"/>
<path d="M157.396 9.3654L150.662 8.38668L147.652 2.28365C147.569 2.11655 147.434 1.98128 147.267 1.89906C146.848 1.69218 146.338 1.86458 146.129 2.28365L143.119 8.38668L136.385 9.3654C136.198 9.39192 136.029 9.47945 135.899 9.61207C135.742 9.77356 135.655 9.99082 135.658 10.2162C135.661 10.4414 135.754 10.6563 135.915 10.8136L140.787 15.5639L139.636 22.2717C139.61 22.4277 139.627 22.5882 139.686 22.7349C139.745 22.8816 139.845 23.0087 139.974 23.1018C140.101 23.1949 140.253 23.2501 140.411 23.2614C140.569 23.2726 140.727 23.2395 140.867 23.1655L146.89 19.9987L152.914 23.1655C153.078 23.253 153.269 23.2822 153.452 23.2504C153.914 23.1708 154.224 22.7332 154.144 22.2717L152.993 15.5639L157.866 10.8136C157.998 10.6836 158.086 10.5139 158.113 10.3282C158.184 9.86405 157.86 9.43436 157.396 9.3654Z" fill="url(#paint4_linear_233_484)"/>
</g>
</g>
<defs>
<linearGradient id="paint0_linear_233_484" x1="14.109" y1="1.81152" x2="14.109" y2="23.2636" gradientUnits="userSpaceOnUse">
<stop stop-color="#FDD974"/>
<stop offset="1" stop-color="#FABB61"/>
</linearGradient>
<linearGradient id="paint1_linear_233_484" x1="47.3063" y1="1.81152" x2="47.3063" y2="23.2636" gradientUnits="userSpaceOnUse">
<stop stop-color="#FDD974"/>
<stop offset="1" stop-color="#FABB61"/>
</linearGradient>
<linearGradient id="paint2_linear_233_484" x1="80.4996" y1="1.81152" x2="80.4996" y2="23.2636" gradientUnits="userSpaceOnUse">
<stop stop-color="#FDD974"/>
<stop offset="1" stop-color="#FABB61"/>
</linearGradient>
<linearGradient id="paint3_linear_233_484" x1="113.697" y1="1.81152" x2="113.697" y2="23.2636" gradientUnits="userSpaceOnUse">
<stop stop-color="#FDD974"/>
<stop offset="1" stop-color="#FABB61"/>
</linearGradient>
<linearGradient id="paint4_linear_233_484" x1="146.89" y1="1.81152" x2="146.89" y2="23.2636" gradientUnits="userSpaceOnUse">
<stop stop-color="#FDD974"/>
<stop offset="1" stop-color="#FABB61"/>
</linearGradient>
<clipPath id="clip0_233_484">
<rect width="161" height="27.15" fill="white"/>
</clipPath>
<clipPath id="clip1_233_484">
<rect width="161" height="27.15" fill="white"/>
</clipPath>
</defs>
</svg>
